<svg width="512" height="584" viewBox="0 0 512 584" fill="none" xmlns="http://www.w3.org/2000/svg">
<path d="M0 7.01736C0 10.9159 9.87614 125.273 22.0914 261.202C34.0467 396.871 44.4426 512.007 44.7025 516.945L45.4822 525.782L150.741 554.891L255.74 584L276.792 578.282C288.227 575.163 335.269 562.168 381.531 549.433C453.263 529.68 465.478 525.522 466.518 521.104C467.817 514.866 512 14.0347 512 5.71785V0H0V7.01736ZM417.657 117.476C416.617 123.713 409.86 197.526 402.583 281.994C395.046 366.202 388.808 435.856 388.288 436.376C387.249 437.675 259.639 473.022 256 473.022C253.401 473.022 183.748 454.049 136.187 440.534L122.932 436.636L119.813 402.328C118.254 383.356 116.175 360.484 115.135 351.388L113.576 335.274H146.063C182.709 335.274 181.669 334.754 181.929 357.365C181.929 363.083 182.709 371.92 183.488 377.118L185.048 386.474L220.654 395.831L256 405.187L291.086 395.831C310.319 390.633 326.432 386.215 326.432 386.215C326.692 385.955 328.252 370.62 329.811 352.167C331.371 333.454 333.19 315.261 333.97 311.103L335.269 304.085H112.276L110.977 298.108C110.197 294.989 108.638 279.915 107.598 264.32L105.779 236.511H339.947L341.507 218.838C342.546 209.221 344.106 194.407 344.885 186.09C345.925 175.434 345.665 171.275 343.586 172.575C342.026 173.355 286.668 173.355 220.134 172.315L99.2812 170.756L97.7218 152.303C96.6822 142.166 95.3827 127.612 94.603 120.075L93.0437 106.56H418.956L417.657 117.476Z" fill="black"/>
</svg>
