<svg width="519" height="519" viewBox="0 0 519 519" fill="none" xmlns="http://www.w3.org/2000/svg">
<path d="M471.49 221.483C470.322 220.553 459.358 212.293 436.285 212.293C430.19 212.313 424.107 212.834 418.098 213.85C413.622 183.207 388.299 168.286 387.174 167.615L380.968 164.047L376.881 169.929C371.774 177.837 368.045 186.552 365.852 195.706C361.722 213.201 364.23 229.614 373.118 243.671C362.392 249.639 345.178 251.11 341.697 251.239H56.7875C53.2121 251.245 49.7842 252.665 47.252 255.189C44.7198 257.713 43.289 261.136 43.2718 264.712C42.9419 289.668 47.1704 314.475 55.7495 337.912C65.5672 363.646 80.1641 382.611 99.1508 394.202C120.43 407.242 155.03 414.681 194.214 414.681C211.925 414.746 229.593 413.124 247.001 409.902C271.198 405.449 294.483 396.993 315.898 384.882C333.54 374.667 349.416 361.669 362.911 346.389C385.487 320.829 398.938 292.392 408.929 267.09H412.908C437.625 267.09 452.828 257.208 461.197 248.904C466.776 243.627 471.122 237.183 473.934 230.047L475.75 224.857L471.49 221.483Z" fill="black"/>
<path d="M83.1916 242.87H121.36C122.243 242.87 123.09 242.519 123.715 241.895C124.339 241.27 124.69 240.423 124.69 239.54V205.545C124.693 205.108 124.609 204.675 124.445 204.269C124.28 203.864 124.037 203.496 123.73 203.184C123.423 202.873 123.057 202.625 122.654 202.455C122.251 202.285 121.819 202.196 121.381 202.194H83.1916C82.3083 202.194 81.4613 202.544 80.8367 203.169C80.2122 203.794 79.8613 204.641 79.8613 205.524V239.562C79.8613 241.378 81.3534 242.87 83.1916 242.87ZM135.805 242.87H173.973C174.857 242.87 175.704 242.519 176.328 241.895C176.953 241.27 177.304 240.423 177.304 239.54V205.545C177.309 205.107 177.228 204.672 177.064 204.266C176.901 203.86 176.658 203.49 176.35 203.178C176.042 202.866 175.675 202.618 175.271 202.45C174.867 202.281 174.433 202.194 173.995 202.194H135.805C135.364 202.191 134.927 202.275 134.519 202.443C134.111 202.61 133.74 202.857 133.429 203.169C133.117 203.481 132.87 203.851 132.703 204.259C132.535 204.667 132.45 205.104 132.453 205.545V239.562C132.475 241.378 133.967 242.87 135.805 242.87ZM189.219 242.87H227.387C228.27 242.87 229.117 242.519 229.742 241.895C230.366 241.27 230.717 240.423 230.717 239.54V205.545C230.72 205.108 230.637 204.675 230.472 204.269C230.307 203.864 230.064 203.496 229.757 203.184C229.45 202.873 229.084 202.625 228.682 202.455C228.279 202.285 227.846 202.196 227.409 202.194H189.219C188.336 202.194 187.489 202.544 186.864 203.169C186.24 203.794 185.889 204.641 185.889 205.524V239.562C185.889 241.378 187.381 242.87 189.219 242.87ZM241.984 242.87H280.152C281.037 242.87 281.887 242.52 282.515 241.896C283.143 241.272 283.498 240.425 283.504 239.54V205.545C283.507 205.104 283.422 204.667 283.255 204.259C283.087 203.851 282.84 203.481 282.529 203.169C282.217 202.857 281.846 202.61 281.438 202.443C281.03 202.275 280.593 202.191 280.152 202.194H241.984C241.101 202.194 240.254 202.544 239.629 203.169C239.005 203.794 238.654 204.641 238.654 205.524V239.562C238.654 241.378 240.146 242.87 241.984 242.87ZM135.805 193.954H173.973C175.811 193.954 177.304 192.441 177.304 190.603V156.608C177.304 155.725 176.953 154.878 176.328 154.253C175.704 153.629 174.857 153.278 173.973 153.278H135.805C134.92 153.278 134.071 153.628 133.443 154.252C132.815 154.876 132.459 155.723 132.453 156.608V190.624C132.475 192.441 133.967 193.954 135.805 193.954ZM189.219 193.954H227.387C229.225 193.954 230.717 192.441 230.717 190.603V156.608C230.717 155.725 230.366 154.878 229.742 154.253C229.117 153.629 228.27 153.278 227.387 153.278H189.219C188.336 153.278 187.489 153.629 186.864 154.253C186.24 154.878 185.889 155.725 185.889 156.608V190.624C185.889 192.441 187.381 193.954 189.219 193.954ZM241.984 193.954H280.152C281.99 193.954 283.504 192.441 283.504 190.603V156.608C283.498 155.723 283.143 154.876 282.515 154.252C281.887 153.628 281.037 153.278 280.152 153.278H241.984C241.101 153.278 240.254 153.629 239.629 154.253C239.005 154.878 238.654 155.725 238.654 156.608V190.624C238.654 192.441 240.146 193.954 241.984 193.954ZM241.984 145.017H280.152C281.037 145.017 281.887 144.667 282.515 144.043C283.143 143.419 283.498 142.572 283.504 141.687V107.649C283.498 106.764 283.143 105.917 282.515 105.293C281.887 104.669 281.037 104.319 280.152 104.319H241.984C241.101 104.319 240.254 104.67 239.629 105.294C239.005 105.919 238.654 106.766 238.654 107.649V141.665C238.654 143.525 240.146 145.017 241.984 145.017ZM295.246 242.87H333.414C334.3 242.87 335.149 242.52 335.777 241.896C336.405 241.272 336.761 240.425 336.766 239.54V205.545C336.769 205.104 336.684 204.667 336.517 204.259C336.35 203.851 336.103 203.481 335.791 203.169C335.479 202.857 335.109 202.61 334.701 202.443C334.293 202.275 333.855 202.191 333.414 202.194H295.246C294.363 202.194 293.516 202.544 292.891 203.169C292.267 203.794 291.916 204.641 291.916 205.524V239.562C291.916 239.998 292.002 240.43 292.17 240.833C292.338 241.236 292.583 241.601 292.893 241.909C293.202 242.216 293.57 242.46 293.974 242.625C294.377 242.79 294.81 242.873 295.246 242.87Z" fill="black"/>
</svg>
