<svg width="217" height="217" viewBox="0 0 217 217" fill="none" xmlns="http://www.w3.org/2000/svg">
<rect width="217" height="217" rx="108.5" fill="black"/>
<path d="M76.5909 156.455C69.8636 156.455 64.0606 154.97 59.1818 152C54.3333 149 50.5909 144.818 47.9545 139.455C45.3485 134.061 44.0455 127.788 44.0455 120.636C44.0455 113.485 45.3485 107.182 47.9545 101.727C50.5909 96.2424 54.2576 91.9697 58.9545 88.9091C63.6818 85.8182 69.197 84.2727 75.5 84.2727C79.1364 84.2727 82.7273 84.8788 86.2727 86.0909C89.8182 87.303 93.0455 89.2727 95.9545 92C98.8636 94.697 101.182 98.2727 102.909 102.727C104.636 107.182 105.5 112.667 105.5 119.182V123.727H51.6818V114.455H94.5909C94.5909 110.515 93.803 107 92.2273 103.909C90.6818 100.818 88.4697 98.3788 85.5909 96.5909C82.7424 94.803 79.3788 93.9091 75.5 93.9091C71.2273 93.9091 67.5303 94.9697 64.4091 97.0909C61.3182 99.1818 58.9394 101.909 57.2727 105.273C55.6061 108.636 54.7727 112.242 54.7727 116.091V122.273C54.7727 127.545 55.6818 132.015 57.5 135.682C59.3485 139.318 61.9091 142.091 65.1818 144C68.4545 145.879 72.2576 146.818 76.5909 146.818C79.4091 146.818 81.9545 146.424 84.2273 145.636C86.5303 144.818 88.5152 143.606 90.1818 142C91.8485 140.364 93.1364 138.333 94.0455 135.909L104.409 138.818C103.318 142.333 101.485 145.424 98.9091 148.091C96.3333 150.727 93.1515 152.788 89.3636 154.273C85.5758 155.727 81.3182 156.455 76.5909 156.455ZM127.943 85.1818L144.67 113.727L161.398 85.1818H173.761L151.216 120.091L173.761 155H161.398L144.67 127.909L127.943 155H115.58L137.761 120.091L115.58 85.1818H127.943Z" fill="white"/>
</svg>
