<svg width="352" height="506" viewBox="0 0 352 506" fill="none" xmlns="http://www.w3.org/2000/svg">
<path fill-rule="evenodd" clip-rule="evenodd" d="M156.335 39.6329H98.3188C66.277 39.6329 40.3021 65.6078 40.3021 97.6496C40.3021 129.691 66.277 155.666 98.3188 155.666H156.335V39.6329ZM156.335 0.299561H195.669H253.685C307.452 0.299561 351.033 43.8844 351.033 97.6496C351.033 129.377 335.859 157.561 312.365 175.333C335.859 193.106 351.033 221.289 351.033 253.017C351.033 306.781 307.452 350.367 253.685 350.367C231.946 350.367 211.871 343.241 195.669 331.198V350.367V408.383C195.669 462.148 152.083 505.733 98.3188 505.733C44.5536 505.733 0.96875 462.148 0.96875 408.383C0.96875 376.653 16.1467 348.472 39.6381 330.7C16.1467 312.927 0.96875 284.744 0.96875 253.017C0.96875 221.289 16.1471 193.106 39.6389 175.333C16.1471 157.561 0.96875 129.377 0.96875 97.6496C0.96875 43.8844 44.5536 0.299561 98.3188 0.299561H156.335ZM195.669 39.6329V155.666H253.685C285.728 155.666 311.7 129.691 311.7 97.6496C311.7 65.6078 285.728 39.6329 253.685 39.6329H195.669ZM98.3188 311.032H156.335V253.166V253.017V252.867V195H98.3188C66.277 195 40.3021 220.975 40.3021 253.017C40.3021 284.982 66.1527 310.909 98.0886 311.033L98.3188 311.032ZM40.3021 408.383C40.3021 376.417 66.1527 350.491 98.0886 350.366L98.3188 350.367H156.335V408.383C156.335 440.424 130.36 466.4 98.3188 466.4C66.277 466.4 40.3021 440.424 40.3021 408.383ZM195.669 252.901C195.731 220.912 221.682 195 253.685 195C285.728 195 311.7 220.975 311.7 253.017C311.7 285.058 285.728 311.033 253.685 311.033C221.682 311.033 195.731 285.121 195.669 253.132V252.901Z" fill="black"/>
</svg>
