<svg width="512" height="512" viewBox="0 0 512 512" fill="none" xmlns="http://www.w3.org/2000/svg">
<g clip-path="url(#clip0_117_16)">
<path d="M0 0H512V512H0V0Z" fill="black"/>
<path d="M470.096 389.889C466.348 366.528 451.115 346.914 405.998 328.614C390.327 321.411 372.855 316.253 367.647 304.377C365.798 297.466 365.554 293.573 366.722 289.387C370.081 275.808 386.287 271.574 399.136 275.468C407.41 278.242 415.246 284.618 419.966 294.789C442.062 280.481 442.014 280.578 457.442 270.747C451.796 261.987 448.779 257.947 445.08 254.2C431.793 239.356 413.688 231.714 384.73 232.298C379.717 232.931 374.656 233.612 369.643 234.245C355.188 237.895 341.414 245.488 333.335 255.66C309.098 283.158 316.009 331.291 345.503 351.1C374.558 372.904 417.241 377.868 422.692 398.26C427.997 423.228 404.344 431.306 380.836 428.435C363.51 424.834 353.874 416.025 343.459 400.013C324.283 411.109 324.283 411.109 304.572 422.449C309.245 432.67 314.16 437.293 321.996 446.151C359.082 483.772 451.893 481.923 468.539 424.98C469.22 423.033 473.698 409.989 470.096 389.889ZM278.339 235.315H230.449C230.449 276.684 230.254 317.761 230.254 359.13C230.254 385.46 231.617 409.6 227.334 416.998C220.326 431.549 202.172 429.749 193.899 426.926C185.479 422.789 181.196 416.9 176.232 408.578C174.869 406.193 173.847 404.344 173.506 404.198C160.511 412.131 147.565 420.112 134.57 428.046C141.044 441.332 150.582 452.867 162.798 460.361C181.049 471.312 205.579 474.67 231.228 468.781C247.921 463.914 262.327 453.84 269.871 438.509C280.773 418.409 278.436 394.074 278.339 367.16C278.582 323.261 278.339 279.361 278.339 235.315Z" fill="white"/>
</g>
<defs>
<clipPath id="clip0_117_16">
<rect width="512" height="512" fill="white"/>
</clipPath>
</defs>
</svg>
