<svg width="553" height="555" viewBox="0 0 553 555" fill="none" xmlns="http://www.w3.org/2000/svg">
<path fill-rule="evenodd" clip-rule="evenodd" d="M318.377 149.205L317.823 0H234.623L235.178 149.205L276.778 206.335L318.377 149.205ZM235.178 404.905V554.664H318.377V404.905L276.778 347.774L235.178 404.905Z" fill="black"/>
<path fill-rule="evenodd" clip-rule="evenodd" d="M318.377 404.905L406.014 525.821L473.128 477.011L385.491 356.094L318.377 334.462V404.905ZM235.177 149.205L146.986 28.2878L79.8716 77.0983L167.508 198.015L235.177 219.647V149.205Z" fill="black"/>
<path fill-rule="evenodd" clip-rule="evenodd" d="M167.509 198.015L25.5145 151.978L0 230.74L141.994 277.332L209.108 255.146L167.509 198.015ZM343.892 298.964L385.491 356.094L527.485 402.131L553 323.369L411.006 277.332L343.892 298.964Z" fill="black"/>
<path fill-rule="evenodd" clip-rule="evenodd" d="M411.006 277.332L553 230.74L527.485 151.978L385.491 198.015L343.892 255.146L411.006 277.332ZM141.994 277.332L0 323.369L25.5145 402.131L167.509 356.094L209.108 298.964L141.994 277.332Z" fill="black"/>
<path fill-rule="evenodd" clip-rule="evenodd" d="M167.508 356.094L79.8716 477.011L146.986 525.821L235.177 404.905V334.462L167.508 356.094ZM385.491 198.015L473.128 77.0983L406.014 28.2878L318.377 149.205V219.647L385.491 198.015Z" fill="black"/>
</svg>
