<svg width="567" height="584" viewBox="0 0 567 584" fill="none" xmlns="http://www.w3.org/2000/svg">
<path d="M566.68 132.116C566.891 132.895 566.998 133.697 567 134.504V259.858C567 261.467 566.576 263.047 565.77 264.439C564.964 265.832 563.805 266.986 562.41 267.787L457.252 328.362V448.426C457.252 451.693 455.516 454.71 452.684 456.355L233.176 582.783C232.674 583.068 232.126 583.251 231.578 583.445C231.372 583.514 231.178 583.64 230.961 583.697C229.427 584.101 227.814 584.101 226.279 583.697C226.028 583.628 225.8 583.491 225.56 583.4C225.057 583.217 224.532 583.057 224.053 582.783L4.59045 456.355C3.19627 455.553 2.03785 454.399 1.23194 453.007C0.426025 451.615 0.00110467 450.035 0 448.426L0 72.3639C0 71.5413 0.11419 70.7415 0.319733 69.9646C0.388247 69.7019 0.548113 69.4619 0.639465 69.1992C0.81075 68.7193 0.970617 68.228 1.22184 67.7825C1.39312 67.4854 1.64434 67.2455 1.84988 66.9713C2.11252 66.6057 2.35232 66.2287 2.66063 65.9088C2.92327 65.646 3.26584 65.4518 3.56273 65.2233C3.89389 64.9491 4.19078 64.652 4.56761 64.435L114.316 1.22099C115.705 0.421028 117.28 0 118.883 0C120.487 0 122.062 0.421028 123.451 1.22099L233.188 64.435H233.211C233.576 64.6635 233.884 64.9491 234.216 65.2119C234.512 65.4404 234.844 65.646 235.106 65.8974C235.426 66.2287 235.654 66.6057 235.928 66.9713C236.122 67.2455 236.385 67.4854 236.545 67.7825C236.808 68.2395 236.956 68.7193 237.139 69.1992C237.23 69.4619 237.39 69.7019 237.459 69.9761C237.669 70.7546 237.776 71.5574 237.778 72.3639V307.248L329.222 254.568V134.492C329.222 133.693 329.336 132.882 329.541 132.116C329.621 131.842 329.77 131.602 329.861 131.339C330.044 130.859 330.204 130.368 330.455 129.923C330.626 129.625 330.878 129.386 331.072 129.111C331.346 128.746 331.574 128.369 331.894 128.049C332.156 127.786 332.488 127.592 332.784 127.363C333.127 127.089 333.424 126.792 333.789 126.575L443.549 63.361C444.938 62.56 446.513 62.1383 448.117 62.1383C449.72 62.1383 451.295 62.56 452.684 63.361L562.421 126.575C562.809 126.804 563.106 127.089 563.449 127.352C563.734 127.58 564.065 127.786 564.328 128.037C564.648 128.369 564.876 128.746 565.15 129.111C565.356 129.386 565.607 129.625 565.767 129.923C566.029 130.368 566.178 130.859 566.361 131.339C566.463 131.602 566.612 131.842 566.68 132.116ZM548.707 254.568V150.327L510.305 172.446L457.252 203.008V307.248L548.718 254.568H548.707ZM438.97 443.136V338.827L386.785 368.646L237.767 453.739V559.03L438.97 443.136ZM18.2933 88.1873V443.136L219.474 559.019V453.75L114.373 394.238L114.339 394.215L114.293 394.192C113.939 393.986 113.642 393.689 113.311 393.438C113.025 393.209 112.694 393.027 112.443 392.775L112.42 392.741C112.123 392.455 111.918 392.101 111.667 391.781C111.438 391.473 111.164 391.21 110.981 390.89L110.97 390.856C110.764 390.513 110.639 390.102 110.49 389.713C110.342 389.371 110.148 389.051 110.057 388.685C109.942 388.251 109.919 387.783 109.874 387.337C109.828 386.994 109.737 386.651 109.737 386.309V140.868L56.6954 110.295L18.2933 88.1873ZM118.895 19.7065L27.4627 72.3639L118.872 125.021L210.293 72.3524L118.872 19.7065H118.895ZM166.444 348.332L219.485 317.782V88.1873L181.083 110.306L128.03 140.868V370.462L166.444 348.332ZM448.117 81.8465L356.696 134.504L448.117 187.161L539.526 134.492L448.117 81.8465ZM438.97 203.008L385.917 172.446L347.515 150.327V254.568L400.556 285.118L438.97 307.248V203.008ZM228.609 437.915L362.702 361.322L429.732 323.049L338.38 270.426L233.199 331.012L137.337 386.229L228.609 437.915Z" fill="black"/>
</svg>
