<svg width="387" height="389" viewBox="0 0 387 389" fill="none" xmlns="http://www.w3.org/2000/svg">
<path d="M387 194.488C387 87.0759 300.368 0 193.502 0C86.6324 0 0 87.0759 0 194.488C0 301.898 86.6324 388.977 193.5 388.977C300.368 388.977 387 301.898 387 194.488Z" fill="black"/>
<path d="M167.16 96.9123C171.023 96.3393 174.955 97.3295 178.086 99.6638C184.498 104.444 190.413 109.855 195.743 115.815L197.063 117.316H238.801C246.941 117.316 253.532 123.928 253.532 132.094C253.532 140.081 247.219 146.581 239.34 146.866L238.801 146.876H215.747C222.188 161.703 225.494 177.702 225.46 193.868C225.492 209.455 222.417 224.886 216.423 239.262L215.745 240.855H238.786C246.929 240.855 253.52 247.47 253.52 255.636C253.52 263.621 247.205 270.123 239.326 270.408L238.786 270.417H197.039C191.374 276.965 185.015 282.878 178.074 288.053C174.939 290.39 171.002 291.381 167.134 290.806C163.266 290.23 159.787 288.137 157.469 284.988C156.318 283.43 155.485 281.657 155.015 279.772C154.064 275.967 154.659 271.94 156.671 268.573C157.663 266.911 158.974 265.463 160.528 264.311C183.066 247.52 196.006 221.848 196.006 193.865C196.006 165.883 183.066 140.21 160.528 123.42C158.972 122.268 157.66 120.82 156.667 119.158C153.717 114.202 153.905 108.008 157.101 103.253L157.469 102.73C159.811 99.5859 163.291 97.4935 167.16 96.9123ZM164.506 168.579C167.194 169.725 169.625 171.4 171.654 173.503C173.691 175.614 175.286 178.11 176.348 180.845C177.413 183.588 177.924 186.514 177.852 189.455C177.719 195.202 175.362 200.673 171.277 204.716C167.219 208.732 161.741 210.987 156.032 210.992C150.321 210.988 144.842 208.733 140.782 204.716C136.697 200.673 134.34 195.202 134.207 189.455C134.137 186.514 134.65 183.588 135.716 180.845C136.777 178.11 138.373 175.614 140.41 173.503C142.438 171.4 144.868 169.726 147.555 168.579C152.97 166.272 159.091 166.272 164.506 168.579Z" fill="white"/>
</svg>
