<svg width="196" height="435" viewBox="0 0 196 435" fill="none" xmlns="http://www.w3.org/2000/svg">
<path d="M191.378 172.546C168.514 71.7207 114.492 38.6607 108.688 25.9913C102.312 17.0059 95.4473 0.0136719 95.4473 0.0136719C95.3793 0.367109 95.3793 0.584609 95.3114 0.938047V1.15555C95.3114 1.44102 95.2434 1.57695 95.2434 1.86242V2.14789H95.1754C95.1754 2.28383 95.1754 2.43336 95.1754 2.5693V3.05867H95.1075C95.1075 3.19461 95.1075 3.41211 95.0395 3.48008V3.90148C95.0395 4.03742 95.0395 4.18695 94.9715 4.25492V4.60836C94.9715 4.82586 94.9715 5.02977 94.9035 5.1793V5.24727C94.9035 5.53273 94.8356 5.88617 94.7676 6.17164V6.30758C94.6996 6.37555 94.6996 6.44352 94.6996 6.52508V6.81055H94.6317V7.23195H94.5637V7.51742H94.4278V7.93883H94.3598V8.29227H94.2918V8.57773H94.2239V8.8632H94.1559V9.14867H94.0879V9.43414H94.02V9.65164H93.952V9.93711H93.884V10.0051V10.2226H93.816C93.7481 10.2226 93.7481 10.2905 93.7481 10.2905V10.4265L93.6801 10.5624C93.6801 10.6984 93.6121 10.8479 93.5442 10.9838C93.4762 11.0518 93.4762 11.0518 93.4762 11.1198V11.2557H93.4082V11.3916H93.2723V11.7451H93.1364V11.9626H93.0684V12.0305H93.0004V12.1665H92.9324V12.384H92.8645V12.5199H92.7285V12.7374H92.6606V12.8734H92.5926V13.0093H92.5246V13.2268H92.4567V13.3627H92.3887V13.4307H92.3207V13.5666H92.1848V13.7841H92.1168V13.8521H92.0489V13.988H91.9809V14.2055H91.9129V14.2735H91.8449V14.4095H91.777V14.4774H91.709V14.6949H91.5731V14.7629H91.5051V14.8988H91.4371V14.9668H91.3692V15.1027H91.3012C91.3012 15.1707 91.3012 15.1707 91.3012 15.1707V15.2387C91.2332 15.2387 91.2332 15.3066 91.2332 15.3066V15.3746H91.1653C91.0973 15.5105 91.0293 15.5921 90.9478 15.728C90.9478 15.728 90.8118 15.864 90.8118 15.9455C90.7439 15.9455 90.7439 16.0135 90.7439 16.0135V16.0815H90.6759V16.1495H90.6079C90.6079 16.1495 90.6079 16.1495 90.6079 16.2174V16.2854H90.472V16.3534H90.404V16.4213H90.336V16.4893V16.6252H90.2681V16.6932H90.2001V16.7612H90.1321V16.8971H90.0642V16.7612H89.9282V16.8291H89.8603V16.9651H89.7923V17.101H89.7243V17.169H89.6564V17.237H89.5884V17.3049H89.5204V17.4409H89.3845V17.5088H89.3165V17.6448H89.2485V17.7127H89.1806V17.7807H89.1126V17.9982H89.0446V18.0662H88.9767V18.1341H88.9087V18.2021H88.8407V18.2701H88.7048V18.406H88.6368V18.474H88.5689V18.542H88.5009V18.6779H88.4329V18.7459H88.297V18.8138H88.229V18.8818H88.161V19.0177H88.0931V19.1537H88.0251V19.2216H87.9571V19.2896H87.8212V19.3576H87.7532V19.4255H87.6853V19.5615H87.6173V19.6295H87.5493V19.7654H87.4814V19.8334H87.4134V19.9013H87.3454V19.9693H87.2775V20.0373H87.1415V20.1052C87.0735 20.1052 87.0735 20.1732 87.0735 20.1732L87.0056 20.2412L86.9376 20.3091V20.4451H86.8696V20.513H86.8017V20.581H86.7337V20.649H86.6657L86.5298 20.7849V20.8529C86.3939 20.9209 86.3939 20.9888 86.2443 21.1384C86.2443 21.1384 86.1084 21.2743 86.0268 21.2743C85.8093 21.4102 85.5375 21.6957 85.32 21.9132C85.184 21.9812 85.0345 22.1307 84.8985 22.1987C84.6131 22.4841 84.3276 22.688 84.0421 22.9055C83.6207 23.327 83.1857 23.6124 82.6964 24.0338H82.6284C81.636 24.8902 80.5078 25.869 79.2979 26.9429H79.23C76.185 29.6345 72.569 33.1009 68.4637 37.2062L68.1103 37.5596C43.4648 63.0479 4.60027 116.213 0.562931 202.098C0.141524 209.181 0.209482 216.114 0.630888 222.842V222.978C2.61558 256.827 13.2323 285.714 26.5406 309.217C31.7742 318.57 37.5107 327.066 43.3153 334.705C63.2845 361.05 83.6751 376.696 88.8407 380.516C96.8475 398.99 96.127 430.854 96.127 430.854L107.804 434.742C107.804 434.742 105.398 403.938 108.728 388.999C109.789 384.391 112.195 380.435 115.036 377.036C117.021 375.691 122.689 371.585 129.486 365.359C129.839 365.006 130.057 364.72 130.342 364.367C157.883 338.661 209.363 275.369 191.732 172.287L191.378 172.546Z" fill="black"/>
</svg>
