<svg width="505" height="496" viewBox="0 0 505 496" fill="none" xmlns="http://www.w3.org/2000/svg">
<path d="M464.852 383.02C437.397 382.335 416.118 385.08 398.271 392.628C393.123 394.685 384.885 394.687 384.198 401.207C386.944 403.952 387.287 408.413 389.69 412.186C393.813 419.047 401.015 428.312 407.537 433.119C414.743 438.607 421.953 444.096 429.5 448.9C442.887 457.136 457.989 461.938 471.031 470.174C478.584 474.974 486.129 481.155 493.681 486.3C497.456 489.042 499.857 493.507 504.664 495.22V494.193C502.26 491.102 501.573 486.643 499.173 483.212C495.744 479.78 492.308 476.692 488.875 473.26C478.923 459.881 466.568 448.214 453.184 438.607C442.202 431.058 418.175 420.765 413.715 408.068C413.715 408.068 413.37 407.727 413.029 407.384C420.578 406.697 429.5 403.952 436.71 401.893C448.379 398.803 459.017 399.491 471.031 396.403C476.521 395.03 482.012 393.314 487.502 391.599V388.512C481.328 382.335 476.866 374.101 470.344 368.268C452.841 353.167 433.619 338.415 413.715 326.063C403.075 319.2 389.345 314.739 378.02 308.907C373.905 306.846 367.038 305.819 364.637 302.387C358.457 294.84 355.025 284.89 350.564 275.968C340.614 257.094 331.002 236.166 322.421 216.266C316.246 202.883 312.471 189.5 304.919 177.15C269.569 118.82 231.13 83.4782 172.1 48.8212C159.4 41.6169 144.3 38.5284 128.169 34.7557C119.592 34.4105 111.009 33.7262 102.43 33.3811C96.9381 30.979 91.4462 24.4609 86.6408 21.3725C67.0819 9.01883 16.6273 -17.7416 2.21311 17.5998C-7.05443 39.9011 15.9428 61.8592 23.8334 73.1854C29.6725 81.0761 37.2199 89.9962 41.3388 98.9183C43.7415 104.748 44.426 110.929 46.8287 117.104C52.3225 132.197 57.4672 149.013 64.6773 163.083C68.4529 170.287 72.5699 177.835 77.3753 184.355C80.1212 188.128 84.9246 189.845 85.9563 196.02C81.1529 202.883 80.8077 213.178 78.0598 221.755C65.705 260.528 70.5124 308.564 88.0138 337.042C93.5037 345.617 106.547 364.495 124.05 357.287C139.496 351.112 136.064 331.554 140.522 314.398C141.556 310.276 140.869 307.535 142.927 304.789V305.478C147.732 315.082 152.535 324.349 156.998 333.956C167.638 350.767 186.169 368.268 201.613 379.935C209.853 386.108 216.373 396.746 226.67 400.521V399.489H225.981C223.922 396.401 220.833 395.03 218.089 392.626C211.912 386.453 205.046 378.904 200.242 372.04C185.83 352.824 173.128 331.552 161.803 309.592C156.313 298.958 151.506 287.29 147.046 276.654C144.984 272.533 144.984 266.36 141.554 264.303C136.405 271.85 128.856 278.37 125.08 287.633C118.562 302.387 117.874 320.573 115.471 339.442C114.098 339.79 114.783 339.442 114.096 340.133C103.116 337.384 99.3408 326.063 95.2199 316.455C84.9226 292.095 83.2064 252.978 92.1327 224.843C94.5354 217.637 104.833 194.993 100.714 188.13C98.6543 181.61 91.7875 177.835 88.0138 172.689C83.5536 166.169 78.7463 157.938 75.659 150.729C67.4212 131.514 63.3023 110.241 54.38 91.0257C50.2611 82.1036 43.057 72.8423 37.2199 64.6065C30.7002 55.3432 23.4921 48.8212 18.3435 37.8421C16.6293 34.0694 14.2246 27.8925 16.9705 23.7746C17.657 21.0294 19.028 20.0019 21.7759 19.3155C26.2381 15.5388 38.938 20.343 43.3963 22.402C56.0962 27.5454 66.7347 32.3536 77.3753 39.5579C82.1787 42.9895 87.3273 49.5095 93.5037 51.2253H100.712C111.696 53.6254 124.048 51.9116 134.346 54.998C152.537 60.8298 169.009 69.4087 183.768 78.674C228.729 107.152 265.792 147.641 290.848 196.02C294.967 203.909 296.681 211.119 300.457 219.351C307.667 236.166 316.589 253.322 323.794 269.791C331.002 285.916 337.865 302.387 348.162 315.77C353.31 322.973 373.901 326.75 383.169 330.524C390.033 333.611 400.674 336.358 406.85 340.131C418.519 347.333 430.187 355.573 441.171 363.462C446.662 367.579 463.821 376.158 464.852 383.02Z" fill="black"/>
</svg>
