<svg width="537" height="537" viewBox="0 0 537 537" fill="none" xmlns="http://www.w3.org/2000/svg">
<path d="M378.904 190.635C381.438 191.927 383.787 193.672 385.7 195.787L438.242 172.36L389.224 123.762L378.199 189.93L378.904 190.635ZM269.826 146.483C272.443 150.326 274.004 154.69 274.541 159.321L352.758 192.464C355.108 190.635 357.81 189.309 360.696 188.52L373.534 109.061L325.892 59.0699L269.792 145.242L269.826 146.483ZM536.815 269.289L452.993 185.466L395.92 208.809L536.127 268.416C536.127 268.416 537.352 269.289 536.815 269.289ZM522.836 282.932L388.251 225.406C384.492 230.39 378.803 233.712 372.594 234.484L358.179 323.039C362.458 327.402 364.908 333.259 364.908 339.367L446.18 356.417L520.739 282.378V280.985L522.836 282.932ZM344.536 206.963L271.487 175.834C266.318 183.704 257.508 188.336 248.144 187.983H243.697L183.134 281.422L344.821 211.41V211.595C344.737 210.37 344.737 209.161 344.821 207.836C344.905 207.567 344.804 207.232 344.536 206.963ZM433.342 370.513L361.854 355.729C359.152 359.236 355.662 361.854 351.533 363.431L334.484 469.103L433.778 370.681C433.778 370.681 433.594 371.218 433.325 371.218L433.342 370.513ZM333.343 363.23C326.445 360.428 321.378 354.504 319.532 347.321L186.423 319.985L184.493 323.056L305.301 497.765L312.551 490.6L333.091 363.683C333.091 363.683 333.779 364.203 333.343 363.952V363.23ZM189.225 303.892L320.773 330.993C324.616 324.264 331.513 319.901 339.216 319.297L353.463 232.236L350.392 229.618L186.876 299.713C187.748 301.005 188.537 302.415 189.225 303.892ZM134.065 325.825L131.263 323.056L74.5421 346.365L102.063 373.735L133.36 325.137L134.065 325.825ZM171.487 334.752C167.544 336.581 163.181 337.454 158.918 337.555C155.411 337.555 152.088 337.018 148.766 335.893L114.247 386.153L265.63 536.127L292.279 509.63L171.487 334.752ZM150.242 275.666C152.508 275.414 154.874 275.414 157.223 275.666C159.774 275.33 162.392 275.33 164.926 275.666L226.094 180.566C221.311 175.599 218.659 168.954 218.659 162.124C218.408 160.11 218.408 158.012 218.659 156.015L144.369 121.664L84.5773 179.861L150.242 275.666ZM156.988 110.035L229.433 140.895C234.669 136.532 241.314 134.25 248.144 134.518C251.114 134.602 254.068 135.039 256.954 135.911L313.524 47.6419L266.755 0.872559L156.988 108.625C156.988 108.625 156.804 109.766 156.988 110.035ZM129.887 292.715C131.363 290.014 133.193 287.48 135.307 285.197L73.3339 192.716L0.0166016 263.952L129.887 292.715ZM124.03 308.355L11.8809 284.929L61.1675 334.937L123.325 308.54L124.03 308.355Z" fill="black"/>
</svg>
