<svg width="419" height="419" viewBox="0 0 419 419" fill="none" xmlns="http://www.w3.org/2000/svg">
<path d="M195.794 0.327249C194.894 0.409077 192.03 0.695475 189.452 0.900045C130.004 6.25978 74.3203 38.3363 39.0525 87.6377C19.4138 115.05 6.85316 146.145 2.10714 179.08C0.429668 190.577 0.225098 193.973 0.225098 209.561C0.225098 225.15 0.429668 228.545 2.10714 240.042C13.4812 318.638 69.4106 384.673 145.265 409.14C158.849 413.517 173.168 416.504 189.452 418.304C195.794 419 223.206 419 229.548 418.304C257.656 415.195 281.468 408.24 304.952 396.252C308.553 394.411 309.248 393.92 308.757 393.511C308.43 393.265 293.087 372.685 274.676 347.81L241.208 302.6L199.272 240.533C176.196 206.411 157.212 178.508 157.048 178.508C156.885 178.467 156.721 206.043 156.639 239.715C156.516 298.672 156.476 301.045 155.739 302.436C154.675 304.441 153.857 305.259 152.139 306.159C150.829 306.814 149.684 306.937 143.506 306.937H136.428L134.546 305.75C133.318 304.973 132.418 303.95 131.804 302.763L130.945 300.922L131.027 218.89L131.15 136.816L132.418 135.221C133.073 134.361 134.464 133.257 135.446 132.725C137.123 131.907 137.778 131.825 144.856 131.825C153.202 131.825 154.594 132.152 156.762 134.525C157.376 135.18 180.083 169.384 207.25 210.584C234.417 251.785 271.567 308.041 289.814 335.658L322.955 385.86L324.632 384.755C339.484 375.099 355.195 361.352 367.633 347.032C394.104 316.633 411.165 279.565 416.893 240.042C418.571 228.545 418.775 225.15 418.775 209.561C418.775 193.973 418.571 190.577 416.893 179.08C405.519 100.485 349.59 34.4495 273.735 9.98295C260.356 5.64607 246.118 2.65935 230.162 0.859131C226.234 0.449991 199.19 -6.23286e-05 195.794 0.327249ZM281.468 126.915C283.432 127.897 285.027 129.779 285.6 131.743C285.927 132.807 286.009 155.555 285.927 206.82L285.805 280.383L272.835 260.499L259.824 240.615V187.14C259.824 152.568 259.988 133.134 260.233 132.193C260.888 129.902 262.32 128.102 264.284 127.038C265.961 126.179 266.575 126.097 272.999 126.097C279.054 126.097 280.118 126.179 281.468 126.915Z" fill="black"/>
</svg>
