<svg width="363" height="423" viewBox="0 0 363 423" fill="none" xmlns="http://www.w3.org/2000/svg">
<path d="M345.418 92.7027L198.792 4.76273C193.525 1.76017 187.567 0.181152 181.505 0.181152C175.442 0.181152 169.484 1.76017 164.218 4.76273L17.5819 92.6933C12.2975 95.9315 7.93767 100.478 4.92348 105.893C1.9093 111.308 0.342688 117.41 0.375002 123.607V299.232C0.343299 305.434 1.90993 311.538 4.92382 316.958C7.93772 322.378 12.2972 326.93 17.5819 330.175L56.0332 353.136L56.2502 353.259C75.6645 363.192 83.0982 363.192 91.7111 363.192C122.031 363.192 140.87 343.57 140.87 311.977V141.691C140.887 139.565 140.061 137.519 138.572 136.002C137.083 134.484 135.052 133.62 132.926 133.597H111.814C109.688 133.62 107.658 134.484 106.169 136.002C104.68 137.519 103.853 139.565 103.871 141.691V311.977C103.948 314.415 103.393 316.831 102.261 318.992C101.129 321.152 99.4573 322.983 97.409 324.307C91.8431 327.703 83.7585 326.986 74.6363 322.279L37.7886 300.1C37.6476 300.004 37.5324 299.874 37.4535 299.723C37.3745 299.572 37.3341 299.403 37.3358 299.232V126.088C37.3419 125.889 37.3956 125.694 37.4924 125.52C37.5893 125.346 37.7264 125.198 37.8924 125.088L181.132 37.3558C181.239 37.3026 181.357 37.2749 181.476 37.2749C181.596 37.2749 181.714 37.3026 181.821 37.3558L325.145 125.088C325.308 125.207 325.441 125.363 325.531 125.544C325.621 125.725 325.667 125.924 325.664 126.126V299.232C325.668 299.411 325.632 299.589 325.558 299.752C325.485 299.915 325.376 300.06 325.24 300.176L181.792 385.691C181.548 385.776 181.282 385.776 181.038 385.691L144.407 363.937C143.32 363.227 142.063 362.816 140.766 362.748C139.469 362.68 138.176 362.957 137.021 363.551L136.7 363.739C126.587 369.73 123.87 371.286 114.493 374.701C112.965 375.258 109.371 376.588 109.059 380.144C108.748 383.701 112.163 386.229 115.201 387.993L164.161 418.058C169.378 421.183 175.344 422.836 181.425 422.841H181.972C187.901 422.748 193.701 421.098 198.792 418.058L345.418 330.203C350.7 326.948 355.057 322.39 358.07 316.967C361.083 311.543 362.652 305.437 362.625 299.232V123.607C362.655 117.411 361.087 111.313 358.073 105.899C355.059 100.486 350.7 95.9408 345.418 92.7027Z" fill="black"/>
<path d="M230.442 270.036C195.264 270.036 187.764 260.206 185.538 244.338C185.287 242.449 184.366 240.713 182.943 239.445C181.52 238.178 179.689 237.464 177.783 237.433H159.105C157 237.478 154.998 238.354 153.538 239.871C152.077 241.388 151.277 243.422 151.313 245.527C151.313 259.281 156.143 304.176 230.479 304.176C253.478 304.176 272.61 298.799 285.789 288.62C298.967 278.441 306.024 263.63 306.024 245.98C306.024 210.557 282.911 200.859 237.394 194.52C191.122 188.086 191.122 184.812 191.122 177.643C191.122 172.483 191.122 160.398 224.574 160.398C248.375 160.398 261.12 163.408 265.195 179.265C265.556 181.024 266.506 182.606 267.889 183.75C269.272 184.894 271.004 185.532 272.798 185.558H291.543C292.648 185.547 293.737 185.3 294.739 184.835C295.742 184.37 296.633 183.697 297.354 182.86C298.795 181.177 299.514 178.994 299.354 176.784C296.93 143.248 272.412 126.239 224.602 126.239C181.151 126.239 155.218 145.814 155.218 178.596C155.218 214.538 182.094 224.698 222.47 228.905C269.638 233.782 269.638 240.895 269.638 247.178C269.667 256.97 265.601 270.036 230.442 270.036Z" fill="black"/>
</svg>
