<svg width="555" height="293" viewBox="0 0 555 293" fill="none" xmlns="http://www.w3.org/2000/svg">
<path d="M162.106 105.037H140.276L128.367 166.272H147.746C160.603 166.272 170.177 163.844 176.467 159.011C182.757 154.154 186.989 146.084 189.186 134.752C191.313 123.884 190.342 116.206 186.318 111.743C182.271 107.28 174.224 105.037 162.106 105.037ZM277.5 0.534912C124.251 0.534912 0 65.8862 0 146.5C0 227.114 124.251 292.488 277.5 292.488C430.749 292.488 555 227.114 555 146.5C555 65.8862 430.749 0.534912 277.5 0.534912ZM202.112 172.839C196.077 178.621 188.816 182.968 180.907 185.581C173.137 188.079 163.216 189.374 151.191 189.374H123.881L116.319 228.247H84.4525L112.896 81.958H174.178C192.608 81.958 206.044 86.7912 214.508 96.4805C222.971 106.147 225.515 119.652 222.139 136.996C220.846 143.858 218.465 150.471 215.086 156.582C211.779 162.479 207.454 167.914 202.112 172.839ZM295.167 189.374L307.724 124.647C309.181 117.293 308.626 112.252 306.152 109.592C303.678 106.91 298.382 105.569 290.265 105.569H265.013L248.732 189.397H217.097L245.541 43.0849H277.153L269.591 81.9812H297.758C315.494 81.9812 327.704 85.0799 334.434 91.2543C341.163 97.4287 343.175 107.442 340.516 121.294L327.288 189.374H295.167ZM470.848 136.996C469.576 143.864 467.194 150.48 463.795 156.582C460.488 162.479 456.164 167.914 450.822 172.839C444.783 178.603 437.54 182.955 429.616 185.581C421.846 188.079 411.926 189.374 399.877 189.374H372.59L365.028 228.27H333.162L361.606 81.9812H422.864C441.294 81.9812 454.73 86.8143 463.194 96.5037C471.658 106.147 474.224 119.652 470.848 136.996ZM410.839 105.037H389.032L377.099 166.272H396.478C409.359 166.272 418.932 163.844 425.199 159.011C431.489 154.154 435.721 146.084 437.941 134.752C440.069 123.884 439.074 116.206 435.051 111.743C431.027 107.28 422.933 105.037 410.839 105.037Z" fill="black"/>
</svg>
