<svg width="299" height="308" viewBox="0 0 299 308" fill="none" xmlns="http://www.w3.org/2000/svg">
<path d="M214.809 0C202.842 0.0890177 190.945 1.82938 179.454 5.17183L178.645 5.4285C171.397 4.14757 164.059 3.43955 156.7 3.311C141.582 3.05433 128.595 6.72467 118.123 12.8333C107.805 9.25283 86.399 3.08 63.838 4.312C48.13 5.17183 30.9847 9.94583 18.2797 23.3567C5.61318 36.7675 -1.08582 57.519 0.32585 85.7523C0.71085 93.5422 2.93102 106.247 6.61418 122.699C10.2973 139.152 15.4692 158.415 21.9244 175.983C28.3795 193.565 35.4507 209.35 46.5002 220.079C52.0185 225.456 59.6158 229.973 68.5735 229.601C74.8618 229.345 80.547 226.585 85.4493 222.517C87.8363 225.661 90.3902 227.035 92.713 228.305C95.639 229.909 98.488 231 101.44 231.719C106.74 233.04 115.813 234.811 126.439 233.002C130.058 232.399 133.87 231.218 137.668 229.537C137.809 233.772 137.976 237.917 138.143 242.114C138.669 255.409 139.003 267.69 142.994 278.458C143.636 280.216 145.394 289.276 152.324 297.271C159.254 305.279 172.832 310.272 188.296 306.961C199.204 304.625 213.077 300.415 222.291 287.3C231.403 274.338 235.51 255.743 236.318 225.584C236.523 223.954 236.767 222.569 237.024 221.272L239.193 221.465H239.449C251.089 221.991 263.717 220.336 274.266 215.433C283.609 211.108 290.68 206.732 295.826 198.968C297.11 197.043 298.521 194.72 298.906 190.716C299.291 186.712 296.994 180.45 293.183 177.562C285.547 171.761 280.747 173.969 275.601 175.034C270.531 176.155 265.365 176.782 260.175 176.907C275.011 151.921 285.649 125.382 291.72 101.897C295.313 88.0367 297.328 75.2547 297.495 64.0768C297.661 52.899 296.75 43.0045 290.051 34.4447C269.12 7.7 239.693 0.308 216.927 0.0513333C216.221 0.0385 215.515 0.0256667 214.809 0.0385V0ZM214.206 8.21333C235.741 8.008 263.255 14.0525 283.006 39.2957C287.446 44.968 288.768 53.2583 288.614 63.4737C288.447 73.6762 286.561 85.8935 283.108 99.2787C276.409 125.202 263.756 155.424 245.93 182.541C246.56 182.989 247.24 183.359 247.958 183.645C251.68 185.185 260.162 186.507 277.09 183.029C281.35 182.131 284.469 181.527 287.703 183.991C288.489 184.658 289.11 185.497 289.517 186.443C289.924 187.389 290.107 188.417 290.051 189.446C289.878 191.003 289.304 192.489 288.383 193.758C285.11 198.673 278.655 203.331 270.378 207.168C263.05 210.582 252.539 212.366 243.222 212.469C238.551 212.52 234.239 212.161 230.582 211.019L230.351 210.929C228.939 224.532 225.692 251.392 223.575 263.648C221.881 273.53 218.916 281.384 213.257 287.261C207.61 293.139 199.615 296.681 188.86 298.991C175.539 301.853 165.825 298.773 159.562 293.498C153.312 288.237 150.45 281.255 148.731 276.982C147.55 274.03 146.934 270.206 146.344 265.098C145.753 259.99 145.317 253.741 145.022 246.695C144.629 235.907 144.5 225.111 144.637 214.317C139.072 219.413 132.157 222.799 124.719 224.07C115.877 225.571 107.985 224.096 103.275 222.915C100.953 222.332 98.7118 221.466 96.6015 220.336C94.4198 219.168 92.3408 217.846 90.9548 215.241C90.1404 213.749 89.8813 212.016 90.2233 210.351C90.6571 208.663 91.6416 207.168 93.021 206.103C95.562 204.037 98.9243 202.882 103.994 201.83C113.221 199.93 116.442 198.634 118.405 197.081C120.074 195.747 121.96 193.052 125.297 189.099C125.281 188.924 125.268 188.749 125.258 188.573C119.287 188.405 113.439 186.831 108.19 183.979C106.265 186.006 96.4347 196.401 84.4483 210.826C79.4048 216.858 73.8352 220.323 67.9575 220.566C62.0798 220.823 56.7668 217.859 52.2495 213.482C43.2277 204.717 36.0282 189.638 29.7527 172.596C23.49 155.553 18.3952 136.572 14.7762 120.402C11.1444 104.232 9.00118 91.1937 8.69318 84.9053C7.34568 58.1863 13.5955 40.1812 24.3113 28.8237C35.04 17.4662 49.747 13.167 64.0818 12.3457C89.8127 10.8698 114.247 19.8403 119.188 21.7653C128.711 15.2973 140.979 11.2677 156.302 11.5243C163.577 11.6264 170.815 12.5651 177.875 14.322L178.132 14.2065C181.239 13.1142 184.405 12.1973 187.616 11.4602C196.332 9.42678 205.244 8.34672 214.193 8.239L214.206 8.21333ZM216.157 16.8117H214.283C206.931 16.9142 199.606 17.7395 192.415 19.2757C208.406 26.3597 220.482 37.268 228.99 48.1507C234.901 55.6857 239.786 63.9712 243.518 72.7907C244.929 76.1787 245.879 79.0405 246.418 81.2607C246.687 82.3772 246.867 83.314 246.931 84.2893C246.957 84.777 246.983 85.2775 246.777 86.1373C246.777 86.1758 246.713 86.2657 246.7 86.3042C247.085 97.5462 244.3 105.169 243.967 115.898C243.71 123.675 245.699 132.812 246.187 142.784C246.649 152.152 245.52 162.444 239.437 172.544C239.95 173.16 240.412 173.776 240.9 174.392C256.993 149.046 268.594 121.005 274.78 97.097C278.091 84.2252 279.849 72.5597 280.003 63.3197C280.131 54.0797 278.411 47.3807 276.217 44.583C258.995 22.561 235.689 16.9657 216.157 16.8117ZM154.685 20.097C139.516 20.1355 128.634 24.717 120.382 31.5828C111.873 38.6797 106.162 48.3945 102.415 58.3403C97.9618 70.147 96.4347 81.5687 95.8315 89.32L95.9983 89.2173C100.58 86.6507 106.599 84.084 113.041 82.5953C119.483 81.1195 126.426 80.6575 132.715 83.0958C139.003 85.5342 144.2 91.2707 146.087 99.9717C155.122 141.77 143.276 157.311 138.913 169.041C137.258 173.292 135.84 177.632 134.665 182.041C135.217 181.913 135.769 181.759 136.321 181.707C139.401 181.451 141.813 182.477 143.251 183.093C147.64 184.915 150.656 188.74 152.285 193.103C152.709 194.245 153.017 195.477 153.197 196.748C153.386 197.27 153.473 197.823 153.453 198.378C152.967 214.365 153.022 230.365 153.62 246.349C153.915 253.253 154.352 259.336 154.903 264.136C155.455 268.923 156.238 272.567 156.739 273.799C158.381 277.906 160.781 283.283 165.119 286.94C169.456 290.585 175.681 293.023 187.051 290.585C196.907 288.468 202.99 285.529 207.058 281.307C211.113 277.084 213.539 271.207 215.092 262.211C217.415 248.736 222.086 209.658 222.651 202.305C222.394 196.761 223.215 192.5 224.986 189.253C226.809 185.916 229.632 183.876 232.07 182.772C233.289 182.22 234.432 181.848 235.368 181.579C234.377 180.154 233.336 178.762 232.25 177.408C228.734 173.144 225.855 168.394 223.703 163.304C222.672 161.202 221.572 159.135 220.405 157.106C218.698 154.026 216.542 150.176 214.283 145.851C209.766 137.188 204.851 126.691 202.297 116.462C199.756 106.247 199.384 95.6725 205.903 88.2163C211.678 81.5943 221.816 78.848 237.037 80.388C236.588 79.0405 236.318 77.924 235.561 76.1273C232.12 68.028 227.628 60.4167 222.201 53.4893C209.304 36.9985 188.424 20.6488 156.161 20.1227H154.685V20.097ZM69.4462 20.7643C67.8163 20.7643 66.1865 20.8157 64.5695 20.9055C51.6078 21.6498 39.352 25.41 30.5868 34.7013C21.8088 43.9927 16.0339 59.2258 17.2915 84.4433C17.5354 89.2173 19.6144 102.59 23.182 118.477C26.7369 134.365 31.7803 153.063 37.8377 169.58C43.9078 186.096 51.2613 200.469 58.2427 207.271C61.759 210.672 64.8133 212.045 67.5853 211.93C70.3702 211.801 73.7197 210.197 77.8135 205.282C85.2774 196.279 93.0241 187.513 101.042 178.999C95.3529 174.06 90.9991 167.768 88.3818 160.703C85.7644 153.638 84.9678 146.028 86.0653 138.574C87.3872 129.091 87.5668 120.223 87.4128 113.216C87.2588 106.388 86.7712 101.845 86.7712 99.0092C86.7689 98.9279 86.7689 98.8466 86.7712 98.7653V98.7012L86.7583 98.6242C86.7507 83.8504 89.3217 69.1757 94.3557 55.286C97.949 45.738 103.301 36.036 111.321 28.182C103.442 25.5897 89.4533 21.637 74.31 20.8927C72.6858 20.8093 71.0726 20.7665 69.4462 20.7643ZM228.554 88.55C219.84 88.6655 214.951 90.9113 212.384 93.8502C208.752 98.021 208.406 105.336 210.664 114.345C212.91 123.367 217.556 133.454 221.919 141.834C224.101 146.03 226.218 149.803 227.925 152.871C229.645 155.951 230.902 158.132 231.672 159.993C232.378 161.713 233.161 163.227 233.957 164.639C237.332 157.516 237.935 150.522 237.589 143.233C237.139 134.211 235.048 124.984 235.356 115.641C235.702 104.72 237.858 97.6103 238.051 89.166C234.901 88.7581 231.729 88.5523 228.554 88.55ZM122.884 90.0258C120.222 90.0507 117.571 90.3692 114.979 90.9755C109.813 92.2307 104.837 94.1684 100.182 96.7377C98.6076 97.5822 97.1091 98.5612 95.7032 99.6637L95.4208 99.9203C95.4978 101.794 95.87 106.337 96.024 113.023C96.178 120.338 95.9983 129.668 94.5867 139.768C91.5195 161.713 107.446 179.885 126.157 179.91C127.248 175.406 129.044 170.837 130.841 166.025C136.051 151.985 146.305 141.744 137.668 101.781C136.257 95.2362 133.459 92.5925 129.609 91.1038C127.451 90.3406 125.172 89.9754 122.884 90.0258ZM224.486 92.6438H225.127C225.974 92.6695 226.757 92.7593 227.437 92.9262C228.13 93.0802 228.721 93.3112 229.208 93.632C229.459 93.7869 229.674 93.9926 229.839 94.2358C230.005 94.4789 230.118 94.7541 230.171 95.0437L230.158 95.1463C230.183 95.7556 230.027 96.3585 229.709 96.8788C229.33 97.5832 228.855 98.2311 228.297 98.8038C226.995 100.237 225.252 101.195 223.344 101.524C221.487 101.749 219.612 101.278 218.082 100.203C217.455 99.7813 216.893 99.2712 216.414 98.6883C215.998 98.2304 215.718 97.6662 215.605 97.0585C215.578 96.7624 215.612 96.464 215.705 96.1815C215.798 95.899 215.947 95.6385 216.144 95.4158C216.565 94.9374 217.075 94.5451 217.646 94.2608C218.878 93.5678 220.546 93.0545 222.432 92.7722C223.138 92.6695 223.831 92.6182 224.486 92.6053V92.6438ZM124.129 94.7998C124.809 94.7998 125.528 94.864 126.259 94.9667C128.223 95.2362 129.968 95.7623 131.303 96.5323C131.954 96.8721 132.533 97.3339 133.01 97.8927C133.269 98.189 133.465 98.5358 133.584 98.9112C133.703 99.2866 133.744 99.6826 133.703 100.074C133.579 100.812 133.245 101.499 132.74 102.051C132.215 102.695 131.597 103.258 130.905 103.719C129.236 104.901 127.186 105.419 125.156 105.169C123.081 104.828 121.182 103.797 119.766 102.243C119.163 101.617 118.653 100.909 118.251 100.138C117.828 99.4609 117.643 98.6616 117.725 97.867C117.918 96.481 119.06 95.7623 120.176 95.3645C121.448 94.9581 122.783 94.7842 124.116 94.8512L124.129 94.7998ZM240.399 189.035L240.361 189.048C238.474 189.728 236.921 190.01 235.612 190.588C234.288 191.097 233.197 192.074 232.545 193.334C231.737 194.81 231.044 197.428 231.249 201.881C231.829 202.281 232.471 202.584 233.148 202.779C235.343 203.447 239.026 203.883 243.133 203.819C251.32 203.729 261.394 201.817 266.746 199.327C271.136 197.288 275.211 194.63 278.848 191.435C260.971 195.131 250.858 194.143 244.66 191.589C243.12 190.948 241.685 190.096 240.399 189.035ZM137.335 190.241H137.065C136.385 190.305 135.397 190.536 133.485 192.654C129.019 197.659 127.453 200.803 123.77 203.742C120.087 206.668 115.3 208.234 105.739 210.197C102.71 210.813 100.978 211.493 99.8227 212.045C100.195 212.353 100.156 212.43 100.721 212.725C102.12 213.495 103.917 214.175 105.367 214.548C109.473 215.574 116.224 216.768 123.269 215.574C130.315 214.368 137.643 210.993 143.892 202.228C144.97 200.713 145.086 198.48 144.2 196.08C143.302 193.681 141.339 191.614 139.953 191.037C139.128 190.639 138.243 190.379 137.335 190.267V190.241Z" fill="black"/>
</svg>
