<svg width="467" height="467" viewBox="0 0 467 467" fill="none" xmlns="http://www.w3.org/2000/svg">
<path d="M374.567 164.836C369.903 163.243 365.206 161.76 360.475 160.385C361.259 157.193 361.983 153.982 362.646 150.754C373.317 98.8545 366.34 57.0434 342.524 43.2797C319.722 30.0723 282.325 43.836 244.6 76.745C240.891 79.9921 237.258 83.3365 233.701 86.7782C231.329 84.4918 228.897 82.2541 226.404 80.065C186.864 44.8758 147.233 30.0541 123.445 43.8634C100.642 57.0981 93.8652 96.4009 103.47 145.591C104.43 150.456 105.51 155.299 106.708 160.121C101.098 161.717 95.6803 163.423 90.4995 165.229C44.2008 181.419 14.5938 206.803 14.5938 233.126C14.5938 260.325 46.3716 287.597 94.6496 304.134C98.5656 305.466 102.518 306.703 106.507 307.846C105.212 313.009 104.066 318.229 103.068 323.507C93.9473 371.849 101.062 410.221 123.819 423.374C147.324 436.955 186.754 423 225.191 389.343C228.231 386.68 231.271 383.867 234.312 380.906C238.155 384.621 242.107 388.227 246.169 391.724C283.383 423.812 320.132 436.773 342.853 423.584C366.34 409.957 373.974 368.729 364.059 318.573C363.299 314.742 362.424 310.832 361.432 306.843C364.205 306.022 366.92 305.174 369.578 304.298C419.744 287.634 452.425 260.69 452.425 233.153C452.406 206.702 421.851 181.154 374.567 164.836ZM256.905 90.8826C289.221 62.6893 319.43 51.5616 333.203 59.5152C347.86 67.9887 353.561 102.156 344.349 146.968C343.741 149.887 343.084 152.797 342.379 155.697C323.093 151.311 303.537 148.215 283.839 146.43C272.561 130.184 260.198 114.719 246.835 100.141C250.106 96.9664 253.457 93.8804 256.887 90.8826H256.905ZM143.867 255.619C147.826 263.28 151.964 270.848 156.281 278.321C160.677 285.946 165.259 293.459 170.026 300.859C156.473 299.386 143.005 297.215 129.675 294.356C133.542 281.842 138.303 268.844 143.867 255.619ZM143.867 211.536C138.394 198.594 133.761 185.861 129.957 173.565C142.453 170.765 155.77 168.476 169.652 166.743C165.001 174.003 160.525 181.37 156.226 188.843C151.927 196.316 147.798 203.881 143.84 211.536H143.867ZM153.809 233.582C159.574 221.561 165.782 209.77 172.434 198.211C179.081 186.657 186.155 175.368 193.659 164.344C206.684 163.359 220.037 162.839 233.527 162.839C247.017 162.839 260.453 163.359 273.469 164.353C280.893 175.353 287.926 186.602 294.566 198.101C301.206 209.6 307.496 221.336 313.437 233.309C307.575 245.373 301.3 257.212 294.611 268.826C287.977 280.379 280.984 291.702 273.633 302.793C260.635 303.705 247.182 304.207 233.5 304.207C219.818 304.207 206.62 303.778 193.86 302.948C186.301 291.887 179.169 280.55 172.462 268.936C165.755 257.321 159.528 245.537 153.782 233.582H153.809ZM310.801 278.193C315.21 270.544 319.442 262.794 323.498 254.944C329.058 267.55 333.965 280.434 338.201 293.544C324.714 296.581 311.078 298.91 297.348 300.522C301.981 293.17 306.466 285.727 310.801 278.193ZM323.315 211.546C319.278 203.853 315.079 196.253 310.719 188.743C306.463 181.337 302.027 174.021 297.412 166.798C311.376 168.567 324.775 170.92 337.335 173.793C333.296 186.604 328.617 199.204 323.315 211.546ZM233.71 113.539C242.818 123.491 251.418 133.897 259.477 144.715C242.238 143.894 224.987 143.894 207.724 144.715C216.234 133.46 224.944 123.016 233.71 113.539ZM132.858 60.0716C147.506 51.5707 179.895 63.72 214.036 94.0659C216.216 96.0087 218.414 98.0427 220.603 100.15C207.171 114.726 194.72 130.178 183.334 146.403C163.68 148.174 144.163 151.22 124.904 155.524C123.791 151.048 122.788 146.543 121.894 142.006C113.64 99.8396 119.103 68.0526 132.858 60.0716ZM111.505 289.786C107.857 288.747 104.254 287.619 100.697 286.402C79.3535 279.106 61.7224 269.583 49.6188 259.212C38.7829 249.918 33.292 240.642 33.292 233.126C33.292 217.155 57.0616 196.779 96.7018 182.96C101.682 181.227 106.705 179.643 111.77 178.208C117.657 197.128 124.787 215.638 133.113 233.619C124.688 251.848 117.47 270.611 111.505 289.786ZM212.868 375.224C195.876 390.109 178.856 400.662 163.851 405.98C150.37 410.75 139.635 410.887 133.15 407.138C119.34 399.157 113.594 368.337 121.429 327C122.359 322.136 123.424 317.271 124.622 312.407C144.073 316.597 163.786 319.458 183.626 320.971C195.123 337.281 207.677 352.82 221.205 367.489C218.487 370.161 215.705 372.734 212.868 375.224ZM234.23 354.044C225.364 344.458 216.517 333.85 207.888 322.449C216.273 322.777 224.811 322.942 233.5 322.942C242.42 322.942 251.25 322.75 259.951 322.358C251.921 333.35 243.336 343.926 234.23 354.044ZM347.806 380.122C345.197 394.205 339.952 403.599 333.467 407.357C319.667 415.366 290.16 404.958 258.346 377.513C254.697 374.375 251.049 371.01 247.337 367.48C260.601 352.754 272.86 337.152 284.031 320.78C303.98 319.09 323.79 316.027 343.318 311.613C344.212 315.225 345.002 318.764 345.689 322.23C350.077 344.394 350.706 364.443 347.806 380.122ZM363.676 286.503C361.287 287.296 358.824 288.062 356.325 288.81C350.201 269.802 342.793 251.231 334.151 233.226C342.469 215.462 349.587 197.161 355.458 178.445C359.937 179.749 364.287 181.118 368.474 182.568C408.99 196.541 433.708 217.228 433.708 233.126C433.708 250.091 407.011 272.11 363.676 286.503Z" fill="black"/>
<path d="M233.5 272.31C241.263 272.336 248.858 270.057 255.325 265.763C261.791 261.468 266.838 255.352 269.826 248.187C272.814 241.023 273.609 233.133 272.11 225.517C270.611 217.9 266.886 210.9 261.406 205.402C255.926 199.904 248.938 196.156 241.326 194.632C233.715 193.108 225.822 193.878 218.648 196.842C211.474 199.807 205.341 204.834 201.026 211.287C196.711 217.739 194.407 225.327 194.407 233.09C194.396 238.232 195.399 243.327 197.358 248.082C199.318 252.837 202.195 257.159 205.825 260.802C209.456 264.444 213.769 267.335 218.517 269.31C223.266 271.285 228.357 272.304 233.5 272.31Z" fill="black"/>
</svg>
