<svg width="376" height="358" viewBox="0 0 376 358" fill="none" xmlns="http://www.w3.org/2000/svg">
<path d="M260.528 249.725C274.404 248.286 284.93 236.304 284.451 221.925C283.974 207.547 272.011 196.044 257.657 196.044H256.701C241.866 196.523 230.384 208.984 230.863 223.842C231.341 231.032 234.211 237.262 238.518 241.576C222.25 273.689 197.369 297.174 160.048 316.824C134.689 330.245 108.373 335.038 82.0576 331.683C60.5257 328.807 43.779 319.222 33.251 303.404C17.9408 279.919 16.5058 254.516 29.4249 229.115C38.5165 210.901 52.8691 197.481 61.9607 190.771C60.0469 184.54 57.1755 173.996 55.7405 166.328C-13.6388 216.654 -6.46105 284.713 14.592 316.824C30.3811 340.79 62.4395 355.648 97.8466 355.648C107.416 355.648 116.984 354.689 126.555 352.293C187.8 340.311 234.213 303.884 260.528 249.725ZM344.741 190.293C308.376 147.635 254.787 124.151 193.542 124.151H185.886C181.58 115.524 172.489 109.771 162.441 109.771H161.483C146.652 110.251 135.169 122.712 135.646 137.571C136.125 151.949 148.087 163.452 162.441 163.452H163.397C173.923 162.973 183.015 156.262 186.843 147.156H195.455C231.82 147.156 266.27 157.7 297.372 178.31C321.295 194.127 338.52 214.737 348.089 239.659C356.223 259.789 355.744 279.44 347.132 296.216C333.735 321.618 311.247 335.517 281.581 335.517C262.442 335.517 244.26 329.765 234.69 325.451C229.428 330.245 219.857 337.912 213.158 342.707C233.734 352.292 254.787 357.565 274.882 357.565C320.816 357.565 354.788 332.162 367.707 306.76C381.583 278.96 380.625 231.032 344.741 190.293ZM101.674 257.871C102.153 272.25 114.115 283.752 128.469 283.752H129.426C144.259 283.274 155.742 270.811 155.263 255.954C154.786 241.574 142.823 230.072 128.469 230.072H127.512C126.555 230.072 125.118 230.072 124.164 230.551C104.546 197.959 96.4117 162.493 99.2831 124.149C101.195 95.3918 110.766 70.4683 127.512 49.8583C141.388 32.1245 168.182 23.4974 186.365 23.0192C237.083 22.06 258.613 85.3259 260.05 110.729C266.27 112.166 276.796 115.522 283.974 117.919C278.231 40.2749 230.384 0.0141602 184.451 0.0141602C141.388 0.0141602 101.674 31.1682 85.8837 77.1798C63.8745 138.529 78.2285 197.481 105.023 243.972C102.632 247.327 101.195 252.598 101.674 257.871Z" fill="black"/>
</svg>
