<svg width="492" height="496" viewBox="0 0 492 496" fill="none" xmlns="http://www.w3.org/2000/svg">
<path d="M406.84 0L403.293 18.5124C397.808 53.596 399.794 63.6334 414.831 76.6537L429.348 88.6797L414.311 155.817C405.327 195.872 394.309 229.44 387.311 240.472C381.306 249.989 374.308 264.003 372.795 271.531C370.289 280.527 361.777 289.57 348.774 297.572C337.284 304.105 314.729 321.624 298.746 335.685C285.979 347.191 277.184 354.245 272.409 357.275L256.805 369.633C251.792 377.682 248.955 384.168 247.868 389.092C246.78 394.158 247.395 397.52 249.003 399.982C250.563 402.349 253.258 404.006 256.946 405.048C261.313 406.072 265.807 406.439 270.281 406.137C280.403 405.444 290.422 403.666 300.165 400.834C303.475 399.934 306.076 399.082 308.345 398.325C311.844 394.016 319.93 385.872 334.257 371.716C372.275 334.17 386.791 313.622 371.802 319.162C366.269 321.15 368.775 316.131 378.28 306.094C398.329 286.54 409.819 256.996 433.84 164.339C452.848 91.189 452.848 90.1474 466.844 90.1474C473.417 90.1474 492 91.2837 492 91.2837V0H449.349H406.84ZM238.411 156.48C224.604 156.385 194.909 177.454 106.013 250.131C102.183 259.268 101.852 265.565 103.601 269.637C104.736 272.431 106.817 274.372 109.701 275.792C112.538 277.213 116.226 278.065 120.293 278.396C128.379 279.107 137.93 277.828 145.638 276.313L150.839 275.129C152.62 272.739 154.957 270.821 157.648 269.543C163.133 266.512 186.161 245.491 209.189 222.954C249.712 181.857 259.216 163.297 242.714 157.284C241.36 156.745 239.868 156.472 238.411 156.48ZM342.249 185.029C330.096 185.361 308.203 199.47 270.706 229.44C251.887 244.733 239.971 252.971 233.588 254.676L208.81 274.277C199.495 291.322 198.124 301.88 200.583 307.704C201.198 309.14 202.092 310.441 203.212 311.529C204.332 312.618 205.656 313.474 207.108 314.048C210.721 315.476 214.573 316.2 218.457 316.179C227.738 316.08 236.963 314.726 245.882 312.154C250.53 310.905 255.121 309.452 259.642 307.798L261.013 307.23L263.519 305.905C268.248 299.797 279.123 288.292 292.741 275.035C335.77 233.465 357.758 203.921 353.266 192.889C351.233 187.539 347.734 184.84 342.249 185.029ZM227.63 236.163C224.131 236.542 216.281 242.602 202.143 255.007C181.716 273.094 159.445 283.51 151.737 278.87C149.946 279.275 148.149 279.654 146.347 280.006C138.498 281.569 128.71 282.847 119.962 282.137C115.84 281.887 111.8 280.875 108.046 279.154C104.505 277.533 101.679 274.67 100.102 271.105C98.3528 266.844 98.3528 261.541 100.339 254.77L69.6034 280.053L0.0473358 337.674V431.088L227.961 251.314C227.917 249.346 228.172 247.382 228.717 245.491C230.467 239.146 230.372 235.927 227.63 236.211V236.163ZM325.699 266.418C322.247 266.418 316.478 271.294 307.258 281.095C294.727 294.494 275.009 307.467 264.559 310.118L262.952 310.971C261.236 311.68 259.502 312.343 257.75 312.959C254.913 313.906 251.225 315.042 246.969 316.179C238.458 318.499 227.866 320.629 218.409 320.393C213.951 320.387 209.535 319.519 205.406 317.836C201.514 316.229 198.395 313.175 196.705 309.313C193.963 302.732 195.05 293.5 201.056 280.385L0 438.948V496H88.3284L275.671 348.658C280.542 343.261 287.871 335.875 297.753 326.642C324.233 302.069 330.238 293.594 330.238 281.048C330.238 271.294 329.151 266.37 325.699 266.37V266.418ZM370.289 358.743L354.259 374.746C345.275 383.268 329.245 393.779 318.275 398.277L316.1 399.224L315.958 399.461L315.485 399.934C315.06 400.266 314.871 400.313 314.54 400.455C310.16 402.115 305.711 403.584 301.205 404.858C291.186 407.778 280.881 409.604 270.47 410.303C265.547 410.619 260.606 410.188 255.812 409.025C251.651 408.108 247.979 405.679 245.504 402.207C243.234 398.703 242.572 394.016 243.849 388.24C244.864 384.127 246.372 380.153 248.341 376.403L97.1706 496H298.226L322.247 468.444C355.252 429.905 370.289 402.349 370.289 378.771V358.743Z" fill="black"/>
</svg>
