<svg width="397" height="237" viewBox="0 0 397 237" fill="none" xmlns="http://www.w3.org/2000/svg">
<path fill-rule="evenodd" clip-rule="evenodd" d="M198.5 0.462402C145.716 0.462402 112.743 26.6864 99.5416 79.1541C119.333 52.9301 142.43 43.0937 168.812 49.6447C183.874 53.3853 194.641 64.251 206.535 76.2645C225.951 95.8384 248.414 118.5 297.458 118.5C350.243 118.5 383.216 92.2759 396.417 39.8082C376.625 66.0322 353.548 75.8687 327.146 69.3176C312.084 65.577 301.318 54.7114 289.403 42.6978C270.007 23.1041 247.563 0.462402 198.5 0.462402ZM99.5416 118.5C46.7572 118.5 13.7843 144.724 0.583252 197.192C20.3749 170.948 43.4718 161.131 69.8541 167.682C84.9155 171.423 95.6822 182.288 107.597 194.302C126.993 213.876 149.456 236.537 198.52 236.537C251.304 236.537 284.277 210.313 297.478 157.846C277.686 184.07 254.59 193.906 228.207 187.355C213.146 183.614 202.379 172.749 190.484 160.735C171.049 141.161 148.585 118.5 99.5416 118.5Z" fill="black"/>
</svg>
