<svg width="436" height="397" viewBox="0 0 436 397" fill="none" xmlns="http://www.w3.org/2000/svg">
<path d="M236.104 54.9182C241.351 54.9182 245.62 59.1081 245.75 64.326L245.753 64.5713V175.059C245.753 180.308 241.565 184.579 236.349 184.709L236.104 184.712H146.05C140.803 184.712 136.534 180.522 136.404 175.304L136.401 175.059V64.5713C136.401 59.3221 140.589 55.0514 145.805 54.9213L146.05 54.9182H236.104ZM236.104 59.2131H146.05C143.155 59.2131 140.795 61.5076 140.689 64.3791L140.686 64.5713V175.059C140.69 177.956 142.986 180.316 145.858 180.422L146.05 180.425H236.104C239 180.421 241.359 178.124 241.464 175.251L241.468 175.059V64.5713C241.463 61.6107 239.063 59.2131 236.104 59.2131ZM158.912 157.896V164.326H152.477V157.896H158.912ZM230.748 157.896V164.326H162.134V157.896H230.748ZM158.912 130.008V136.438H152.477V130.008H158.912ZM230.748 130.008V136.438H162.134V130.008H230.748ZM158.912 103.192V109.622H152.477V103.192H158.912ZM230.748 103.192V109.622H162.134V103.192H230.748ZM230.748 78.5193V84.9575H152.477V78.5193H230.748Z" fill="black"/>
<path d="M236.104 207.225V207.291C241.325 207.291 245.583 211.442 245.748 216.634L245.753 216.878V327.365C245.753 332.615 241.565 336.885 236.349 337.016L236.104 337.019H146.05C143.491 337.019 141.037 336.002 139.227 334.191C137.487 332.451 136.48 330.114 136.405 327.66L136.401 327.365V216.878C136.401 211.629 140.589 207.358 145.805 207.228L146.05 207.225H236.104ZM236.104 211.52H146.05C143.155 211.52 140.795 213.814 140.689 216.686L140.686 216.878V327.365C140.69 330.263 142.986 332.623 145.858 332.728L146.05 332.732H236.104C238.988 332.728 241.341 330.45 241.463 327.59L241.468 327.399V216.911C241.464 214.015 239.166 211.657 236.296 211.556L236.104 211.553V211.52ZM158.912 310.227V316.666H152.477V310.227H158.912ZM230.748 310.277V316.616H162.134V310.277H230.748ZM158.912 282.34V288.778H152.477V282.34H158.912ZM230.748 282.39V288.728H162.134V282.39H230.748ZM158.912 255.532V261.962H152.477V255.532H158.912ZM230.748 255.582V261.912H162.134V255.582H230.748ZM230.748 230.859V237.297H152.477V230.859H230.748Z" fill="black"/>
<path d="M262.074 119.815V125.173H294.235V270.905H262.074V276.272H294.235H299.599V270.905V125.173V119.815H294.235H262.074Z" fill="black"/>
<path d="M32.9243 25.2085C39.266 14.8036 49.712 8.73407 60.2644 5.20973L61.7037 4.74474L63.142 4.3103C63.8606 4.10055 64.5779 3.90187 65.2928 3.71371L66.719 3.35121C66.956 3.29307 67.1926 3.23606 67.4289 3.18016L68.8409 2.8578C69.0753 2.80623 69.3092 2.75572 69.5425 2.70625L70.9355 2.42177L72.3128 2.16127L73.6723 1.92376L75.0118 1.70821L76.3289 1.51362L77.6214 1.33899L78.8871 1.18329L80.1237 1.04554L81.3289 0.924704L83.0731 0.772986L84.734 0.653678L86.3042 0.563374L88.0112 0.490137L89.5721 0.446339L90.5257 0.430826L91.4054 0.424392H92.2077L93.2582 0.437519L93.8513 0.45025L94.9328 0.486761L95.4099 0.510775V26.2635C72.6422 24.0962 62.4832 30.9755 58.0032 38.3075L57.5996 38.996C57.0186 40.0298 56.5456 41.0673 56.1613 42.0846L55.9181 42.7595C55.8796 42.8714 55.8423 42.9829 55.8059 43.0942L55.5997 43.7571L55.4167 44.4101L55.2555 45.0516C55.2304 45.1575 55.2061 45.2628 55.1827 45.3676L55.0519 45.9889C55.0317 46.0912 55.0122 46.1928 54.9936 46.2938L54.8903 46.8914L54.8038 47.4711L54.7329 48.0314L54.6527 48.8322L54.6004 49.5805L54.5746 50.1672L54.563 50.7096L54.563 51.2046L54.5719 51.6488L54.5873 52.039L54.6168 52.5164L54.6718 53.0796L54.671 62.5405L54.6155 81.8564L54.5482 95.776L54.4694 107.486L54.3831 117.381L54.2992 125.173L54.2004 132.757L54.099 139.224L53.9685 146.076L53.8881 149.645L53.8017 153.018L53.6898 156.775L53.6504 157.951L53.6465 160.125L53.6348 161.457L53.6201 162.355L53.5843 163.716L53.5307 165.03L53.4873 165.831L53.4345 166.636L53.3714 167.443L53.2553 168.657L53.1624 169.468L53.0559 170.281L52.9349 171.093C52.9134 171.228 52.8914 171.364 52.8687 171.499L52.7243 172.31C52.6988 172.446 52.6727 172.581 52.6458 172.716L52.4759 173.525L52.2878 174.333L52.0807 175.138C52.0084 175.406 51.9327 175.673 51.8536 175.94L51.6055 176.738L51.3356 177.532L51.043 178.322C47.7461 186.845 40.2804 194.436 23.375 197.951C39.8206 201.367 47.333 208.634 50.7646 216.865L51.0793 217.652C51.3819 218.441 51.6489 219.239 51.8844 220.041L52.1097 220.846C52.2531 221.383 52.3831 221.923 52.5011 222.463L52.6691 223.276C52.6956 223.411 52.7214 223.547 52.7466 223.682L52.8891 224.496L53.0158 225.31L53.1275 226.125L53.2254 226.939L53.3102 227.752L53.3829 228.563L53.4444 229.372L53.5178 230.58L53.5554 231.381L53.6016 232.723L53.622 233.61L53.6358 234.49L53.6468 235.794L53.6504 237.959L53.7654 241.731L53.8682 245.714L53.9629 249.984L54.0499 254.506L54.142 260.049L54.2678 269.208L54.3546 276.969L54.3971 281.335L54.4884 292.488L54.5871 309.036L54.6552 326.946L54.6801 326.931V342.814L54.6546 343.039L54.6251 343.378L54.6049 343.681L54.5802 344.245L54.5713 344.689L54.5713 345.184L54.5829 345.727L54.6087 346.314L54.6602 347.052L54.7093 347.573L54.8082 348.394L54.8927 348.965L54.9934 349.554L55.1117 350.159C55.1329 350.261 55.1549 350.364 55.1777 350.467L55.3245 351.093C55.3507 351.198 55.3777 351.304 55.4055 351.41L55.5836 352.054L55.7841 352.707C55.8194 352.817 55.8557 352.927 55.8931 353.037L56.1294 353.702C56.2124 353.925 56.2995 354.149 56.3912 354.374L56.6796 355.05C60.2552 363.07 69.6871 371.734 94.082 369.749L95.4182 369.63V395.383L94.7345 395.416L93.4674 395.453L92.4249 395.471H91.187L90.2595 395.46L89.2549 395.441L88.177 395.41L86.7771 395.354L85.7906 395.304L84.764 395.243L83.6992 395.17L82.5984 395.084L81.4636 394.983L80.2969 394.868L79.1003 394.737L77.8759 394.589L76.6258 394.423C76.4155 394.394 76.2041 394.364 75.9918 394.333L74.7069 394.14C74.491 394.106 74.2743 394.071 74.0567 394.035L72.7417 393.811C72.5211 393.772 72.2997 393.732 72.0776 393.691L70.7372 393.434C70.5126 393.39 70.2873 393.344 70.0615 393.298L68.7003 393.006L67.3279 392.691C66.8687 392.582 66.408 392.468 65.9461 392.351L64.5573 391.984C51.7994 388.504 38.3983 381.628 31.5044 368.152C32.999 351.587 39.8081 337.464 52.0395 328.675C52.6152 328.269 53.1983 327.875 53.7888 327.494L54.4554 327.07C53.6276 327.582 52.814 328.123 52.0146 328.692C39.8081 337.464 32.999 351.587 31.5044 368.085C28.4355 361.886 26.8277 355.066 26.8045 348.148L26.6511 341.048L26.4518 332.441L26.2025 322.367L25.863 309.527L25.5514 298.39L25.1222 283.81L24.6384 268.192L23.8292 243.616L23.6324 237.918C23.1536 225.016 17.9774 218.732 12.5905 215.698L11.9561 215.356C11.8503 215.301 11.7444 215.248 11.6386 215.196L11.0043 214.896C10.7931 214.801 10.5823 214.71 10.3721 214.624L9.74365 214.377C9.53497 214.299 9.32718 214.225 9.12055 214.155L8.50444 213.956C8.30042 213.894 8.09783 213.835 7.89694 213.779L7.41534 213.652L6.94121 213.538L6.4754 213.436L6.01876 213.346L5.35285 213.23L4.92284 213.166L4.50497 213.112L3.90276 213.046L3.37238 213.043L2.28738 213.03C1.73606 213.023 1.1708 213.019 0.588331 213.03L0 213.046V182.865C1.41164 182.915 2.6738 182.89 3.90276 182.823L4.50497 182.758L4.92284 182.703L5.35285 182.639L6.01876 182.523L6.4754 182.433L6.94121 182.331L7.41534 182.217L7.89694 182.09L8.50444 181.913L9.12055 181.714L9.74365 181.492C16.0041 179.149 23.0691 173.13 23.6324 157.951L24.3665 136.126L24.9316 118.296L25.2384 108.178L25.7079 91.9462L26.016 80.6569L26.2391 72.058L26.5199 60.5455L26.6827 53.3872L26.8045 47.713C26.9912 38.7699 29.1944 31.5105 32.6921 25.6165L32.926 25.2272L32.9243 25.2085ZM340.582 25.8398V0.0871015L341.274 0.0540673L342.235 0.0238708L342.857 0.0112525L343.958 0.000244141H344.797L345.716 0.00934356L347.135 0.038687L348.944 0.103063L349.913 0.149673L350.923 0.207113L352.508 0.31557L353.61 0.404067L354.744 0.50658L355.91 0.62402L357.105 0.757297L358.327 0.907322L359.575 1.07501L360.845 1.26126L362.137 1.46699C362.354 1.50295 362.571 1.53977 362.79 1.57745L364.109 1.81411L365.444 2.07252L366.793 2.3536L368.154 2.65826L369.525 2.98741C370.213 3.15825 370.904 3.33863 371.596 3.52903L372.983 3.92338C385.943 7.73171 399.267 15.1562 405.525 29.5283C407.907 35.1459 409.154 41.1792 409.196 47.2811L409.349 54.3823L409.548 62.99L409.689 68.7494L409.909 77.3696L410.214 88.7228L410.449 97.0444L410.878 111.626L411.362 127.244L412.171 151.821L412.368 157.519C412.854 170.636 418.196 176.909 423.679 179.884L424.311 180.213C424.417 180.265 424.522 180.316 424.628 180.367L425.26 180.654L425.889 180.915C425.993 180.956 426.098 180.996 426.202 181.036L426.823 181.259C426.927 181.295 427.029 181.329 427.132 181.363L427.743 181.552C427.844 181.582 427.945 181.611 428.045 181.639L428.941 181.869L429.525 181.999L430.094 182.11L430.647 182.205L431.077 182.27L431.495 182.325L432.097 182.392C433.151 182.448 434.247 182.475 435.412 182.45L436 182.433V212.622C434.588 212.572 433.326 212.597 432.097 212.663L431.699 212.705L431.288 212.756L430.647 212.848L429.981 212.964L429.525 213.054L429.059 213.156L428.585 213.27L428.103 213.397L427.8 213.483L427.188 213.671C427.086 213.704 426.983 213.738 426.879 213.773L426.256 213.995C426.152 214.034 426.047 214.074 425.943 214.115L425.312 214.375C419.306 216.963 412.903 223.116 412.368 237.536L411.634 259.35L411.068 277.18L410.762 287.3L410.292 303.533L409.984 314.823L409.761 323.422L409.48 334.935L409.317 342.092L409.196 347.766C409.148 353.074 408.206 358.334 406.41 363.326L406.195 363.911L406.206 363.965C399.787 380.552 384.26 388.351 369.922 391.98L368.516 392.324C368.283 392.379 368.049 392.433 367.817 392.486L366.426 392.792C366.196 392.84 365.965 392.888 365.736 392.935L364.366 393.204C364.139 393.247 363.913 393.289 363.687 393.33L362.343 393.565C362.12 393.602 361.898 393.638 361.677 393.674L360.363 393.877L359.072 394.06L357.806 394.224L356.567 394.369L355.358 394.498L354.18 394.611L352.477 394.751L351.388 394.828L349.828 394.919L348.365 394.985L346.575 395.039L345.557 395.056L344.621 395.063H343.773L343.015 395.054L342.353 395.042L341.548 395.018L340.848 394.989L340.607 394.976V369.223C364.442 371.492 374.458 363.847 378.607 356.146L378.963 355.457C379.076 355.227 379.185 354.998 379.289 354.769L379.586 354.083C379.68 353.855 379.77 353.628 379.855 353.402L380.099 352.727L380.317 352.06C380.351 351.95 380.384 351.839 380.417 351.73L380.6 351.077L380.761 350.435L380.902 349.807L381.023 349.193L381.126 348.596L381.213 348.016L381.284 347.455L381.364 346.655L381.402 346.15L381.442 345.32L381.454 344.777L381.454 344.282L381.445 343.838L381.429 343.448L381.41 343.115L381.37 342.632L381.345 342.407V328.285L381.385 315.135L381.449 301.568L381.525 290.133L381.625 278.46L381.742 267.984L381.824 261.893L381.9 256.987L382.001 251.361L382.075 247.799L382.153 244.412L382.237 241.218L382.35 237.527L382.353 235.362L382.365 234.044L382.379 233.155L382.401 232.259L382.448 230.903L382.493 229.992L382.542 229.181L382.601 228.368L382.672 227.552L382.754 226.735L382.849 225.916L382.958 225.096C382.978 224.96 382.998 224.823 383.018 224.686L383.15 223.867L383.298 223.048L383.463 222.23L383.647 221.415C383.872 220.464 384.136 219.519 384.445 218.582L384.722 217.782C385.107 216.717 385.553 215.666 386.073 214.635L386.476 213.865C390.367 206.712 397.93 200.575 412.625 197.519C394.091 193.669 386.903 184.932 384.116 175.434L383.89 174.63C383.747 174.093 383.617 173.554 383.499 173.013L383.331 172.201C383.304 172.066 383.279 171.93 383.253 171.795L383.111 170.981L382.984 170.167L382.872 169.352L382.775 168.538L382.69 167.726L382.617 166.915L382.556 166.106L382.482 164.898L382.445 164.097L382.398 162.755L382.378 161.868L382.364 160.989L382.353 159.685L382.35 157.519L382.271 155.003L382.182 151.803L382.084 147.686L381.993 143.3L381.91 138.683L381.811 132.23L381.693 122.951L381.605 114.28L381.522 104.235L381.415 86.3734L381.345 67.0193C382.809 66.2103 384.228 65.3229 385.596 64.3609C392.416 59.4723 397.551 52.8858 401.014 45.1374L401.251 44.5949C397.786 52.5794 392.565 59.3616 385.571 64.3692C384.431 65.1709 383.255 65.9207 382.048 66.6166L381.32 67.0276V52.6559L381.345 52.4309L381.375 52.0928L381.395 51.7893L381.42 51.2251L381.429 50.7809L381.429 50.286L381.417 49.7435L381.391 49.1568L381.36 48.6704L381.291 47.8972L381.192 47.0763L381.107 46.5049L381.007 45.9161L380.888 45.3114C380.867 45.2094 380.845 45.1067 380.822 45.0035L380.675 44.3777C380.649 44.2724 380.622 44.1665 380.594 44.0602L380.416 43.4167L380.216 42.7634C380.181 42.6537 380.144 42.5437 380.107 42.4335L379.871 41.7681C379.788 41.5453 379.7 41.3214 379.609 41.0967L379.32 40.4207C375.745 32.4003 366.313 23.7362 341.918 25.7218L340.582 25.8398Z" fill="black"/>
<path d="M53.0858 61.4951C53.3432 61.6821 53.6069 61.8586 53.8726 62.031L54.6718 62.5419V53.0798L54.6463 52.8549L54.6168 52.5167L54.5966 52.2132L54.572 51.649L54.563 51.2048L54.563 50.7099L54.5746 50.1675L54.6004 49.5807L54.6324 49.0879L54.6762 48.5711L54.7329 48.0317L54.8039 47.4713L54.8903 46.8916L54.9936 46.2941L55.1149 45.6803C55.1367 45.5767 55.1593 45.4726 55.1827 45.3678L55.3334 44.7327L55.5054 44.0852C55.5359 43.9764 55.5673 43.8671 55.5997 43.7574L55.8059 43.0944C55.8423 42.9832 55.8797 42.8716 55.9181 42.7597L56.1613 42.0848C56.5456 41.0676 57.0186 40.0301 57.5997 38.9962L58.0032 38.3078C62.4832 30.9758 72.6422 24.0965 95.4099 26.2638V0.511021L94.9328 0.487007L94.1144 0.457663L93.5658 0.443796L92.2077 0.425682L91.4054 0.424637L90.5257 0.431071L89.0688 0.458246L87.7365 0.500398L86.3042 0.563619L84.7341 0.653923L83.0731 0.773232L81.9191 0.870566L80.1237 1.04578L78.8871 1.18354L77.6214 1.33923L76.3289 1.51387L75.0118 1.70845L73.6723 1.924L72.3128 2.16152L70.9355 2.42201L69.5425 2.7065C69.3092 2.75596 69.0753 2.80648 68.841 2.85805L67.4289 3.1804C67.1927 3.23631 66.956 3.29332 66.719 3.35146L65.2929 3.71395C64.578 3.90212 63.8606 4.1008 63.142 4.31055L61.7037 4.74499L60.2645 5.20997C49.712 8.73431 39.266 14.8039 32.9243 25.2087C34.9754 40.4028 41.6682 53.354 53.0858 61.4951ZM95.4182 395.383V369.631C70.516 372.001 60.6976 363.549 56.8956 355.52L56.5842 354.833C56.4357 354.49 56.2977 354.149 56.1696 353.81L55.9264 353.135C55.888 353.023 55.8506 352.911 55.8142 352.8L55.6081 352.137L55.425 351.484L55.2638 350.843L55.1232 350.214L55.0019 349.6L54.8986 349.003L54.8122 348.423L54.7412 347.863L54.6611 347.062L54.6087 346.314L54.5829 345.727L54.5713 345.185L54.5713 344.69L54.5803 344.245L54.5957 343.855L54.6149 343.522L54.6546 343.04L54.6801 342.8V326.931C53.7833 327.485 52.9031 328.066 52.0395 328.676C39.8081 337.465 32.9991 351.587 31.5044 368.152C38.3983 381.628 51.7994 388.504 64.5573 391.985L65.9462 392.351C66.408 392.469 66.8687 392.582 67.3279 392.691L68.7003 393.007L70.0615 393.298L71.4094 393.566C71.6328 393.608 71.8555 393.65 72.0776 393.691L73.4015 393.926C73.6207 393.963 73.8391 394 74.0567 394.036L75.3521 394.239C75.5662 394.272 75.7795 394.303 75.9918 394.334L77.254 394.509C77.4624 394.536 77.6697 394.563 77.876 394.589L79.1003 394.737L80.2969 394.868L81.4636 394.983L82.5984 395.084L83.6992 395.17L84.764 395.244L85.7907 395.305L87.2547 395.376L88.177 395.411L89.2549 395.442L90.2595 395.461L91.187 395.47L92.425 395.468L93.4674 395.453L94.3012 395.432L95.4182 395.383ZM405.525 29.5285C398.868 14.2416 384.218 6.81489 370.514 3.23946L369.147 2.89461L367.789 2.57454C367.563 2.52321 367.338 2.47288 367.113 2.42352L365.771 2.13896C365.548 2.09344 365.326 2.04885 365.104 2.00519L363.783 1.75413L362.477 1.52429L361.19 1.31478L359.923 1.1247L358.678 0.95318L357.457 0.799312L356.263 0.662211L355.096 0.540985L353.96 0.434744L352.317 0.301529L350.752 0.197018L349.273 0.118204L347.887 0.0620798L347.018 0.0357848L345.97 0.0134449L345.003 0.00214236L344.12 0L343.325 0.00514044L342.622 0.0156864L341.751 0.0375339L341.111 0.0609838L340.582 0.0873469V25.8401C365.484 23.4696 375.302 31.9215 379.104 39.9511L379.416 40.638C379.564 40.9807 379.702 41.3221 379.83 41.6611L380.074 42.336C380.112 42.4479 380.149 42.5595 380.186 42.6708L380.392 43.3337L380.575 43.9867L380.736 44.6282L380.877 45.2566L380.998 45.8704L381.101 46.4679L381.188 47.0476L381.259 47.608L381.339 48.4087L381.391 49.157L381.417 49.7438L381.429 50.2862L381.429 50.7811L381.42 51.2253L381.404 51.6156L381.375 52.093L381.32 52.66V67.0278C382.784 66.2188 384.203 65.3314 385.571 64.3695C396.64 56.4443 403.267 44.0747 405.525 29.5285ZM386.668 331.55C384.97 330.342 383.191 329.251 381.345 328.285V342.408L381.37 342.633L381.4 342.971L381.42 343.274L381.445 343.838L381.454 344.283L381.454 344.778L381.442 345.32L381.402 346.15L381.364 346.655L381.284 347.456L381.213 348.016L381.126 348.596L381.023 349.193L380.902 349.807L380.761 350.436L380.6 351.077L380.417 351.73C380.384 351.84 380.351 351.95 380.317 352.06L380.099 352.728L379.855 353.403C379.77 353.629 379.68 353.856 379.586 354.083L379.289 354.769C379.185 354.998 379.076 355.227 378.963 355.457L378.607 356.146C374.458 363.847 364.442 371.493 340.607 369.224V394.976L340.988 394.996L342.085 395.035L343.432 395.059L344.25 395.064L345.646 395.055L346.682 395.036L347.798 395.005L349.179 394.951L350.655 394.873L351.687 394.808L353.303 394.686L354.422 394.589L355.574 394.476L356.754 394.348L357.963 394.204L359.196 394.043L360.454 393.864L361.733 393.665C361.948 393.63 362.163 393.595 362.38 393.559L363.687 393.33L365.011 393.08C365.233 393.037 365.455 392.992 365.679 392.947L367.024 392.663C367.249 392.614 367.474 392.564 367.7 392.513L369.062 392.194C383.634 388.66 399.659 380.885 406.206 363.965C403.615 350.449 397.089 339.018 386.668 331.55Z" fill="black"/>
</svg>
