<svg width="1440" height="400" viewBox="0 0 1440 400" fill="none" xmlns="http://www.w3.org/2000/svg">
<g clip-path="url(#clip0_131_127)">
<mask id="mask0_131_127" style="mask-type:luminance" maskUnits="userSpaceOnUse" x="0" y="0" width="1440" height="400">
<path d="M1440 0H0V400H1440V0Z" fill="white"/>
</mask>
<g mask="url(#mask0_131_127)">
<path d="M1440 0H0V400H1440V0Z" fill="#09090B"/>
<path d="M1127.27 67.9463L1460.12 106.888M1325.63 880.48L1081.8 702.538L819.571 607.077L557.188 455.413L223.412 532.502M223.412 532.502L540.569 737.722L331.754 882.542L223.412 532.502ZM223.412 532.502L-71.1978 400.908L299.657 261.272L134.012 70.6302L329.054 -116.616L85.8466 -293.935" stroke="#18181B" stroke-width="2.06888"/>
<path d="M134.012 70.6299L466.861 109.697L657.229 260.306L922.058 398.224L556.566 454.791L299.035 260.649M634.163 913.572L540.569 737.722" stroke="#18181B" stroke-width="2.06888"/>
<path d="M819.571 607.077L892.197 834.19L1081.8 702.538L1216.67 529.818L922.058 398.224L819.571 607.077ZM819.571 607.077L540.569 737.722L557.189 455.413L657.229 260.306L841.842 118.675L1127.27 67.9462L888.874 -165.589L631.463 -85.5845L537.87 -261.435L329.055 -116.616L466.861 109.697L299.657 261.272L223.412 532.501L88.5471 705.222L332.377 883.163" stroke="#18181B" stroke-width="2.06888"/>
<path d="M816.871 -392.08L890.119 -164.343L1079.1 -296.619M922.058 398.224L841.841 118.675M841.841 118.675L466.86 109.697L631.463 -85.5845M841.841 118.675L1292.91 258.588M657.229 260.306L299.657 261.272" stroke="#18181B" stroke-width="2.06888"/>
<path d="M-103.759 -162.282L329.055 -116.616L631.463 -85.5846L841.841 118.675L888.874 -165.589M888.874 -165.589L1322.93 -118.677L1127.27 67.9461L1292.91 258.588L922.058 398.225L1081.8 702.538M888.874 -165.589L537.869 -261.435M892.196 834.191L540.569 737.722M220.712 -466.655L329.677 -115.993M299.657 261.272L-151.414 121.359" stroke="#18181B" stroke-width="2.06888"/>
<path d="M1127.3 80.4353C1134.16 80.4168 1139.7 74.8101 1139.68 67.9124C1139.66 61.0147 1134.09 55.4381 1127.23 55.4566C1120.38 55.4751 1114.83 61.0818 1114.85 67.9795C1114.87 74.8772 1120.44 80.4538 1127.3 80.4353Z" fill="#18181B"/>
<path d="M841.875 131.165C848.732 131.146 854.276 125.539 854.257 118.642C854.238 111.744 848.665 106.167 841.808 106.186C834.951 106.204 829.407 111.811 829.426 118.709C829.444 125.606 835.018 131.183 841.875 131.165Z" fill="#18181B"/>
<path d="M922.092 410.714C928.949 410.695 934.492 405.088 934.473 398.191C934.455 391.293 928.881 385.716 922.024 385.735C915.167 385.754 909.624 391.36 909.642 398.258C909.661 405.156 915.235 410.732 922.092 410.714Z" fill="#18181B"/>
<path d="M299.691 273.762C306.548 273.743 312.091 268.136 312.073 261.239C312.054 254.341 306.48 248.764 299.623 248.783C292.767 248.801 287.223 254.408 287.242 261.306C287.26 268.203 292.834 273.78 299.691 273.762Z" fill="#18181B"/>
<path d="M466.894 122.186C473.751 122.168 479.295 116.561 479.276 109.663C479.257 102.766 473.684 97.189 466.827 97.2076C459.97 97.2261 454.426 102.833 454.445 109.73C454.464 116.628 460.037 122.205 466.894 122.186Z" fill="#18181B"/>
<path d="M657.262 272.795C664.119 272.777 669.663 267.17 669.644 260.272C669.626 253.375 664.052 247.798 657.195 247.817C650.338 247.835 644.794 253.442 644.813 260.34C644.832 267.237 650.405 272.814 657.262 272.795Z" fill="#18181B"/>
</g>
</g>
<defs>
<clipPath id="clip0_131_127">
<rect width="1440" height="400" fill="white"/>
</clipPath>
</defs>
</svg>
