<svg width="1452" height="1218" viewBox="0 0 1452 1218" fill="none" xmlns="http://www.w3.org/2000/svg">
<g clip-path="url(#clip0_133_144)">
<path d="M300.526 733.903L0.999756 698.039M123.94 2L342.996 162.771L578.817 249.341L814.638 386.502L1115.28 317.921M1115.28 317.921L830.285 132.416L1018.61 2.56214L1115.28 317.921ZM1115.28 317.921L1380.16 437.094L1045.99 561.889L1194.63 733.903L1018.61 901.982L1237.1 1062.19" stroke="#18181B" stroke-width="2.06888"/>
<path d="M578.817 249.341L513.994 44.7224L342.996 162.771L221.173 317.921L486.053 437.095L578.817 249.341ZM578.817 249.341L830.284 132.416L814.637 386.502L724.109 561.889L557.581 688.932L300.526 733.903L514.553 944.705L746.462 873.313L830.284 1031.84L1018.61 901.982L895.107 697.926L1045.99 561.889L1115.28 317.921L1237.1 162.771L1018.05 2" stroke="#18181B" stroke-width="2.06888"/>
<path d="M578.817 1148.76L513.435 943.58L342.996 1062.19M486.053 437.095L557.582 688.932M557.582 688.932L895.107 697.926L746.462 873.313M557.582 688.932L151.88 561.889M724.109 561.889H1045.99" stroke="#18181B" stroke-width="2.06888"/>
<path d="M1408.1 944.143L1018.61 901.982L746.462 873.313L557.582 688.932L514.553 944.705M514.553 944.705L123.939 901.42L300.526 733.903L151.88 561.889L486.053 437.094L342.996 162.771M514.553 944.705L830.285 1031.84M513.994 44.7222L830.285 132.416M1115.28 1217.34L1018.05 901.42M1045.99 561.889L1451.69 688.932" stroke="#18181B" stroke-width="2.06888"/>
<path d="M300.525 722.66C294.353 722.66 289.349 727.694 289.349 733.903C289.349 740.112 294.353 745.146 300.525 745.146C306.698 745.146 311.701 740.112 311.701 733.903C311.701 727.694 306.698 722.66 300.525 722.66Z" fill="#18181B"/>
<path d="M557.582 677.689C551.409 677.689 546.405 682.723 546.405 688.932C546.405 695.141 551.409 700.175 557.582 700.175C563.754 700.175 568.758 695.141 568.758 688.932C568.758 682.723 563.754 677.689 557.582 677.689Z" fill="#18181B"/>
<path d="M486.053 425.852C479.881 425.852 474.877 430.885 474.877 437.095C474.877 443.304 479.881 448.337 486.053 448.337C492.226 448.337 497.229 443.304 497.229 437.095C497.229 430.885 492.226 425.852 486.053 425.852Z" fill="#18181B"/>
<path d="M342.996 151.529C336.824 151.529 331.82 156.562 331.82 162.771C331.82 168.981 336.824 174.014 342.996 174.014C349.169 174.014 354.172 168.981 354.172 162.771C354.172 156.562 349.169 151.529 342.996 151.529Z" fill="#18181B"/>
<path d="M578.817 238.098C572.644 238.098 567.64 243.131 567.64 249.34C567.64 255.55 572.644 260.583 578.817 260.583C584.989 260.583 589.993 255.55 589.993 249.34C589.993 243.131 584.989 238.098 578.817 238.098Z" fill="#18181B"/>
<path d="M814.637 375.259C808.465 375.259 803.461 380.293 803.461 386.502C803.461 392.711 808.465 397.745 814.637 397.745C820.81 397.745 825.814 392.711 825.814 386.502C825.814 380.293 820.81 375.259 814.637 375.259Z" fill="#18181B"/>
<path d="M830.285 121.173C824.112 121.173 819.108 126.207 819.108 132.416C819.108 138.625 824.112 143.659 830.285 143.659C836.457 143.659 841.461 138.625 841.461 132.416C841.461 126.207 836.457 121.173 830.285 121.173Z" fill="#18181B"/>
<path d="M1115.28 306.679C1109.11 306.679 1104.11 311.712 1104.11 317.921C1104.11 324.13 1109.11 329.164 1115.28 329.164C1121.45 329.164 1126.46 324.13 1126.46 317.921C1126.46 311.712 1121.45 306.679 1115.28 306.679Z" fill="#18181B"/>
<path d="M1045.99 550.646C1039.82 550.646 1034.81 555.68 1034.81 561.889C1034.81 568.098 1039.82 573.132 1045.99 573.132C1052.16 573.132 1057.16 568.098 1057.16 561.889C1057.16 555.68 1052.16 550.646 1045.99 550.646Z" fill="#18181B"/>
<path d="M1018.05 890.177C1011.87 890.177 1006.87 895.211 1006.87 901.42C1006.87 907.629 1011.87 912.663 1018.05 912.663C1024.22 912.663 1029.22 907.629 1029.22 901.42C1029.22 895.211 1024.22 890.177 1018.05 890.177Z" fill="#18181B"/>
<path d="M746.462 862.07C740.289 862.07 735.285 867.104 735.285 873.313C735.285 879.522 740.289 884.556 746.462 884.556C752.634 884.556 757.638 879.522 757.638 873.313C757.638 867.104 752.634 862.07 746.462 862.07Z" fill="#18181B"/>
<path d="M513.993 932.9C507.821 932.9 502.817 937.933 502.817 944.143C502.817 950.352 507.821 955.385 513.993 955.385C520.166 955.385 525.17 950.352 525.17 944.143C525.17 937.933 520.166 932.9 513.993 932.9Z" fill="#18181B"/>
<path d="M895.107 686.684C888.935 686.684 883.931 691.717 883.931 697.926C883.931 704.135 888.935 709.169 895.107 709.169C901.28 709.169 906.284 704.135 906.284 697.926C906.284 691.717 901.28 686.684 895.107 686.684Z" fill="#18181B"/>
<path d="M724.11 550.646C717.937 550.646 712.933 555.68 712.933 561.889C712.933 568.098 717.937 573.132 724.11 573.132C730.282 573.132 735.286 568.098 735.286 561.889C735.286 555.68 730.282 550.646 724.11 550.646Z" fill="#18181B"/>
</g>
<defs>
<clipPath id="clip0_133_144">
<rect width="1452" height="1218" fill="white"/>
</clipPath>
</defs>
</svg>
