<svg width="448" height="448" viewBox="0 0 448 448" fill="none" xmlns="http://www.w3.org/2000/svg">
<rect width="448" height="448" rx="50" fill="black"/>
<path d="M359.659 100.084C359.551 99.8738 359.371 99.7093 359.153 99.6196C333.867 88.0238 307.183 79.755 279.769 75.0203C279.52 74.974 279.262 75.0074 279.033 75.1157C278.804 75.224 278.615 75.4017 278.493 75.6236C274.86 82.2152 271.561 88.9859 268.611 95.9098C239.06 91.4261 209.001 91.4261 179.45 95.9098C176.48 88.9683 173.129 82.1959 169.412 75.6236C169.284 75.4065 169.094 75.2329 168.867 75.1253C168.639 75.0177 168.384 74.9811 168.136 75.0203C140.719 79.7451 114.033 88.0145 88.7504 99.6203C88.5339 99.712 88.3513 99.8686 88.2277 100.068C37.6675 175.537 23.8171 249.15 30.6116 321.852C30.6308 322.03 30.6855 322.203 30.7727 322.359C30.8599 322.516 30.9777 322.653 31.119 322.763C60.5598 344.552 93.4896 361.183 128.503 371.947C128.75 372.021 129.013 372.017 129.258 371.937C129.502 371.857 129.717 371.704 129.872 371.499C137.392 361.271 144.055 350.441 149.794 339.119C149.873 338.964 149.918 338.793 149.926 338.619C149.935 338.445 149.906 338.271 149.842 338.109C149.778 337.947 149.681 337.801 149.556 337.679C149.431 337.557 149.282 337.463 149.118 337.403C138.611 333.385 128.438 328.54 118.696 322.916C118.519 322.812 118.37 322.666 118.263 322.491C118.156 322.316 118.093 322.117 118.081 321.912C118.069 321.708 118.108 321.503 118.193 321.316C118.279 321.13 118.409 320.968 118.573 320.844C120.617 319.313 122.663 317.72 124.615 316.112C124.788 315.969 124.998 315.878 125.221 315.848C125.443 315.818 125.67 315.851 125.875 315.942C189.7 345.057 258.8 345.057 321.87 315.942C322.076 315.845 322.305 315.807 322.531 315.835C322.757 315.862 322.97 315.953 323.147 316.097C325.099 317.705 327.144 319.313 329.203 320.844C329.368 320.966 329.499 321.128 329.586 321.313C329.674 321.499 329.714 321.704 329.703 321.908C329.692 322.113 329.631 322.312 329.526 322.488C329.42 322.664 329.272 322.811 329.096 322.916C319.376 328.588 309.194 333.429 298.659 337.388C298.495 337.45 298.346 337.546 298.223 337.67C298.099 337.793 298.002 337.942 297.94 338.105C297.877 338.269 297.85 338.443 297.859 338.618C297.869 338.793 297.915 338.963 297.995 339.119C303.83 350.378 310.484 361.195 317.903 371.481C318.053 371.692 318.266 371.85 318.512 371.933C318.758 372.017 319.023 372.021 319.271 371.945C354.347 361.217 387.335 344.585 416.813 322.763C416.956 322.659 417.076 322.525 417.163 322.37C417.251 322.215 417.304 322.044 417.32 321.867C425.454 237.817 403.702 164.807 359.659 100.084ZM159.326 277.584C140.11 277.584 124.276 259.958 124.276 238.312C124.276 216.665 139.803 199.038 159.326 199.038C179.002 199.038 194.682 216.818 194.375 238.31C194.375 259.958 178.848 277.584 159.326 277.584ZM288.915 277.584C269.7 277.584 253.866 259.958 253.866 238.312C253.866 216.665 269.393 199.038 288.915 199.038C308.592 199.038 324.272 216.818 323.965 238.31C323.965 259.958 308.592 277.584 288.915 277.584Z" fill="white"/>
</svg>
