<svg width="448" height="448" viewBox="0 0 448 448" fill="none" xmlns="http://www.w3.org/2000/svg">
<path fill-rule="evenodd" clip-rule="evenodd" d="M50 0C22.3858 0 0 22.3858 0 50V398C0 425.614 22.3858 448 50 448H398C425.614 448 448 425.614 448 398V50C448 22.3858 425.614 0 398 0H50ZM359.153 99.6196C359.371 99.7093 359.551 99.8738 359.659 100.084C403.702 164.807 425.454 237.817 417.32 321.867C417.304 322.044 417.251 322.215 417.163 322.37C417.076 322.525 416.956 322.659 416.813 322.763C387.335 344.585 354.347 361.217 319.271 371.945C319.023 372.021 318.758 372.017 318.512 371.933C318.266 371.85 318.053 371.692 317.903 371.481C310.484 361.195 303.83 350.378 297.995 339.119C297.915 338.963 297.869 338.793 297.859 338.618C297.85 338.443 297.877 338.269 297.94 338.105C298.002 337.942 298.099 337.793 298.223 337.67C298.346 337.546 298.495 337.45 298.659 337.388C309.194 333.429 319.376 328.588 329.096 322.916C329.272 322.811 329.42 322.664 329.526 322.488C329.631 322.312 329.692 322.113 329.703 321.908C329.714 321.703 329.674 321.499 329.586 321.313C329.499 321.128 329.368 320.966 329.203 320.844C327.144 319.313 325.099 317.705 323.147 316.097C322.97 315.953 322.757 315.862 322.531 315.835C322.305 315.807 322.076 315.845 321.87 315.942C258.8 345.057 189.7 345.057 125.875 315.942C125.67 315.851 125.443 315.818 125.221 315.848C124.998 315.878 124.788 315.969 124.615 316.112C122.663 317.72 120.617 319.313 118.573 320.844C118.409 320.968 118.279 321.13 118.193 321.316C118.108 321.503 118.069 321.708 118.081 321.912C118.093 322.117 118.156 322.316 118.263 322.491C118.37 322.666 118.519 322.812 118.696 322.916C128.438 328.54 138.611 333.385 149.118 337.403C149.282 337.463 149.431 337.557 149.556 337.679C149.681 337.801 149.778 337.947 149.842 338.109C149.906 338.271 149.935 338.445 149.926 338.619C149.918 338.793 149.873 338.964 149.794 339.119C144.055 350.441 137.392 361.271 129.872 371.499C129.717 371.704 129.502 371.857 129.258 371.937C129.013 372.017 128.75 372.021 128.503 371.947C93.4896 361.183 60.5598 344.552 31.119 322.763C30.9776 322.653 30.8599 322.516 30.7727 322.359C30.6855 322.203 30.6308 322.03 30.6116 321.852C23.8171 249.15 37.6675 175.537 88.2277 100.068C88.3513 99.8686 88.534 99.712 88.7504 99.6203C114.033 88.0145 140.719 79.7451 168.136 75.0203C168.384 74.9811 168.639 75.0177 168.867 75.1253C169.094 75.2329 169.284 75.4065 169.412 75.6236C173.129 82.1959 176.48 88.9683 179.45 95.9098C209.001 91.4261 239.06 91.4261 268.611 95.9098C271.561 88.9859 274.86 82.2152 278.493 75.6236C278.615 75.4017 278.804 75.224 279.033 75.1157C279.262 75.0074 279.52 74.974 279.769 75.0203C307.183 79.755 333.867 88.0238 359.153 99.6196ZM124.276 238.312C124.276 259.958 140.11 277.584 159.326 277.584C178.848 277.584 194.375 259.958 194.375 238.31C194.682 216.818 179.002 199.038 159.326 199.038C139.803 199.038 124.276 216.665 124.276 238.312ZM253.866 238.312C253.866 259.958 269.7 277.584 288.915 277.584C308.592 277.584 323.965 259.958 323.965 238.31C324.272 216.818 308.592 199.038 288.915 199.038C269.393 199.038 253.866 216.665 253.866 238.312Z" fill="black"/>
</svg>
