<svg width="448" height="448" viewBox="0 0 448 448" fill="none" xmlns="http://www.w3.org/2000/svg">
<path fill-rule="evenodd" clip-rule="evenodd" d="M393.265 0C423.475 0 448 24.5263 448 54.7348V393.265C448 423.474 423.474 448 393.265 448H54.7348C24.5263 448 0 423.474 0 393.265V54.7348C0 24.5263 24.5254 0 54.7348 0L393.265 0ZM224 70.875C182.414 70.875 177.199 71.0509 160.867 71.7964C144.568 72.5401 133.437 75.1284 123.697 78.9145C113.627 82.8275 105.088 88.0635 96.5755 96.5755C88.0626 105.088 82.8266 113.628 78.9136 123.697C75.1284 133.437 72.5401 144.568 71.7955 160.867C71.0509 177.199 70.875 182.414 70.875 224C70.875 265.586 71.0509 270.801 71.7955 287.133C72.5401 303.432 75.1284 314.562 78.9136 324.303C82.8266 334.372 88.0626 342.912 96.5755 351.424C105.088 359.937 113.627 365.173 123.697 369.086C133.437 372.872 144.568 375.46 160.867 376.204C177.199 376.949 182.414 377.125 224 377.125C265.586 377.125 270.801 376.949 287.133 376.204C303.432 375.46 314.562 372.872 324.303 369.086C334.372 365.173 342.912 359.937 351.424 351.424C359.937 342.912 365.173 334.372 369.086 324.303C372.872 314.562 375.46 303.432 376.204 287.133C376.949 270.801 377.125 265.586 377.125 224C377.125 182.414 376.949 177.199 376.204 160.867C375.46 144.568 372.872 133.437 369.086 123.697C365.173 113.628 359.937 105.088 351.424 96.5755C342.912 88.0635 334.372 82.8275 324.303 78.9145C314.562 75.1284 303.432 72.5401 287.133 71.7964C270.801 71.0509 265.586 70.875 224 70.875ZM224 98.4655C264.886 98.4655 269.729 98.6213 285.876 99.358C300.805 100.04 308.913 102.534 314.309 104.63C321.457 107.408 326.557 110.727 331.916 116.084C337.274 121.443 340.592 126.544 343.37 133.691C345.467 139.087 347.961 147.195 348.642 162.124C349.379 178.271 349.535 183.114 349.535 224C349.535 264.886 349.379 269.729 348.642 285.876C347.961 300.805 345.467 308.913 343.37 314.309C340.592 321.457 337.274 326.557 331.916 331.916C326.557 337.274 321.457 340.592 314.309 343.37C308.913 345.467 300.805 347.961 285.876 348.642C269.732 349.379 264.889 349.535 224 349.535C183.111 349.535 178.269 349.379 162.124 348.642C147.195 347.961 139.087 345.467 133.691 343.37C126.543 340.592 121.443 337.274 116.084 331.916C110.726 326.557 107.407 321.457 104.63 314.309C102.533 308.913 100.039 300.805 99.3571 285.876C98.6204 269.729 98.4646 264.886 98.4646 224C98.4646 183.114 98.6204 178.271 99.3571 162.124C100.039 147.195 102.533 139.087 104.63 133.691C107.407 126.544 110.726 121.443 116.084 116.084C121.443 110.727 126.543 107.408 133.691 104.63C139.087 102.534 147.195 100.04 162.124 99.358C178.271 98.6213 183.114 98.4655 224 98.4655ZM224 145.368C180.573 145.368 145.368 180.573 145.368 224C145.368 267.427 180.573 302.632 224 302.632C267.427 302.632 302.632 267.427 302.632 224C302.632 180.573 267.427 145.368 224 145.368ZM224 275.041C195.81 275.041 172.959 252.19 172.959 224C172.959 195.81 195.81 172.959 224 172.959C252.19 172.959 275.041 195.81 275.041 224C275.041 252.19 252.19 275.041 224 275.041ZM324.114 142.262C324.114 152.41 315.886 160.636 305.738 160.636C295.591 160.636 287.364 152.41 287.364 142.262C287.364 132.114 295.591 123.887 305.738 123.887C315.886 123.887 324.114 132.114 324.114 142.262Z" fill="black"/>
</svg>
