<svg width="448" height="448" viewBox="0 0 448 448" fill="none" xmlns="http://www.w3.org/2000/svg">
<path fill-rule="evenodd" clip-rule="evenodd" d="M393.265 0C423.475 0 448 24.5263 448 54.7348V393.265C448 423.474 423.474 448 393.265 448H54.7348C24.5263 448 0 423.474 0 393.265V54.7348C0 24.5263 24.5254 0 54.7348 0L393.265 0ZM140.403 370.368V172.866H74.7434V370.368H140.403ZM377.125 370.368V257.109C377.125 196.443 344.734 168.221 301.542 168.221C266.713 168.221 251.112 187.376 242.377 200.829V172.866H176.733C177.604 191.399 176.733 370.368 176.733 370.368H242.376V260.069C242.376 254.165 242.801 248.264 244.541 244.044C249.278 232.253 260.087 220.039 278.223 220.039C301.966 220.039 311.479 238.158 311.479 264.696V370.368H377.125ZM108.017 77.6318C85.5522 77.6318 70.875 92.4009 70.875 111.758C70.875 130.709 85.106 145.885 107.148 145.885H107.572C130.466 145.885 144.717 130.709 144.717 111.758C144.293 92.428 130.506 77.6738 108.017 77.6318Z" fill="black"/>
</svg>
