<svg xmlns="http://www.w3.org/2000/svg" version="1.1" xmlns:xlink="http://www.w3.org/1999/xlink" xmlns:svgjs="http://svgjs.dev/svgjs" width="1440" height="560" preserveAspectRatio="none" viewBox="0 0 1440 560">
    <g mask="url(&quot;#SvgjsMask1014&quot;)" fill="none">
        <path d="M-48.53 346.48L-48.53 346.48" stroke="rgba(35, 35, 35, 1)" stroke-width="1.5"></path>
        <path d="M-48.53 346.48L-75.96 501.3" stroke="rgba(35, 35, 35, 1)" stroke-width="1.5"></path>
        <path d="M-48.53 346.48L109.37 492.14" stroke="rgba(35, 35, 35, 1)" stroke-width="1.5"></path>
        <path d="M-75.96 501.3L-75.96 501.3" stroke="rgba(35, 35, 35, 1)" stroke-width="1.5"></path>
        <path d="M-75.34 701.21L-75.34 701.21" stroke="rgba(35, 35, 35, 1)" stroke-width="1.5"></path>
        <path d="M-75.34 701.21L55.58 647.66" stroke="rgba(35, 35, 35, 1)" stroke-width="1.5"></path>
        <path d="M-75.34 701.21L-75.96 501.3" stroke="rgba(35, 35, 35, 1)" stroke-width="1.5"></path>
        <path d="M-75.34 701.21L109.37 492.14" stroke="rgba(35, 35, 35, 1)" stroke-width="1.5"></path>
        <path d="M-75.34 701.21L207.34 661.01" stroke="rgba(35, 35, 35, 1)" stroke-width="1.5"></path>
        <path d="M109.37 492.14L109.37 492.14" stroke="rgba(35, 35, 35, 1)" stroke-width="1.5"></path>
        <path d="M109.37 492.14L245.32 527.03" stroke="rgba(35, 35, 35, 1)" stroke-width="1.5"></path>
        <path d="M109.37 492.14L55.58 647.66" stroke="rgba(35, 35, 35, 1)" stroke-width="1.5"></path>
        <path d="M109.37 492.14L229.07 367.7" stroke="rgba(35, 35, 35, 1)" stroke-width="1.5"></path>
        <path d="M109.37 492.14L-75.96 501.3" stroke="rgba(35, 35, 35, 1)" stroke-width="1.5"></path>
        <path d="M109.37 492.14L207.34 661.01" stroke="rgba(35, 35, 35, 1)" stroke-width="1.5"></path>
        <path d="M55.58 647.66L55.58 647.66" stroke="rgba(35, 35, 35, 1)" stroke-width="1.5"></path>
        <path d="M55.58 647.66L207.34 661.01" stroke="rgba(35, 35, 35, 1)" stroke-width="1.5"></path>
        <path d="M55.58 647.66L-75.96 501.3" stroke="rgba(35, 35, 35, 1)" stroke-width="1.5"></path>
        <path d="M55.58 647.66L245.32 527.03" stroke="rgba(35, 35, 35, 1)" stroke-width="1.5"></path>
        <path d="M55.58 647.66L363.79 684.48" stroke="rgba(35, 35, 35, 1)" stroke-width="1.5"></path>
        <path d="M229.07 367.7L229.07 367.7" stroke="rgba(35, 35, 35, 1)" stroke-width="1.5"></path>
        <path d="M229.07 367.7L382.99 373.26" stroke="rgba(35, 35, 35, 1)" stroke-width="1.5"></path>
        <path d="M229.07 367.7L245.32 527.03" stroke="rgba(35, 35, 35, 1)" stroke-width="1.5"></path>
        <path d="M229.07 367.7L409.93 490.28" stroke="rgba(35, 35, 35, 1)" stroke-width="1.5"></path>
        <path d="M229.07 367.7L503.25 402.03" stroke="rgba(35, 35, 35, 1)" stroke-width="1.5"></path>
        <path d="M229.07 367.7L-48.53 346.48" stroke="rgba(35, 35, 35, 1)" stroke-width="1.5"></path>
        <path d="M245.32 527.03L245.32 527.03" stroke="rgba(35, 35, 35, 1)" stroke-width="1.5"></path>
        <path d="M245.32 527.03L207.34 661.01" stroke="rgba(35, 35, 35, 1)" stroke-width="1.5"></path>
        <path d="M245.32 527.03L409.93 490.28" stroke="rgba(35, 35, 35, 1)" stroke-width="1.5"></path>
        <path d="M207.34 661.01L207.34 661.01" stroke="rgba(35, 35, 35, 1)" stroke-width="1.5"></path>
        <path d="M382.99 373.26L382.99 373.26" stroke="rgba(35, 35, 35, 1)" stroke-width="1.5"></path>
        <path d="M382.99 373.26L409.93 490.28" stroke="rgba(35, 35, 35, 1)" stroke-width="1.5"></path>
        <path d="M382.99 373.26L503.25 402.03" stroke="rgba(35, 35, 35, 1)" stroke-width="1.5"></path>
        <path d="M409.93 490.28L409.93 490.28" stroke="rgba(35, 35, 35, 1)" stroke-width="1.5"></path>
        <path d="M409.93 490.28L503.25 402.03" stroke="rgba(35, 35, 35, 1)" stroke-width="1.5"></path>
        <path d="M363.79 684.48L363.79 684.48" stroke="rgba(35, 35, 35, 1)" stroke-width="1.5"></path>
        <path d="M363.79 684.48L207.34 661.01" stroke="rgba(35, 35, 35, 1)" stroke-width="1.5"></path>
        <path d="M363.79 684.48L532.58 656.07" stroke="rgba(35, 35, 35, 1)" stroke-width="1.5"></path>
        <path d="M363.79 684.48L245.32 527.03" stroke="rgba(35, 35, 35, 1)" stroke-width="1.5"></path>
        <path d="M503.25 402.03L503.25 402.03" stroke="rgba(35, 35, 35, 1)" stroke-width="1.5"></path>
        <path d="M503.25 402.03L531.28 544.08" stroke="rgba(35, 35, 35, 1)" stroke-width="1.5"></path>
        <path d="M503.25 402.03L686.6 347.04" stroke="rgba(35, 35, 35, 1)" stroke-width="1.5"></path>
        <path d="M503.25 402.03L666.11 506.31" stroke="rgba(35, 35, 35, 1)" stroke-width="1.5"></path>
        <path d="M531.28 544.08L531.28 544.08" stroke="rgba(35, 35, 35, 1)" stroke-width="1.5"></path>
        <path d="M531.28 544.08L532.58 656.07" stroke="rgba(35, 35, 35, 1)" stroke-width="1.5"></path>
        <path d="M531.28 544.08L409.93 490.28" stroke="rgba(35, 35, 35, 1)" stroke-width="1.5"></path>
        <path d="M531.28 544.08L666.11 506.31" stroke="rgba(35, 35, 35, 1)" stroke-width="1.5"></path>
        <path d="M531.28 544.08L646.34 661.97" stroke="rgba(35, 35, 35, 1)" stroke-width="1.5"></path>
        <path d="M531.28 544.08L363.79 684.48" stroke="rgba(35, 35, 35, 1)" stroke-width="1.5"></path>
        <path d="M532.58 656.07L532.58 656.07" stroke="rgba(35, 35, 35, 1)" stroke-width="1.5"></path>
        <path d="M532.58 656.07L646.34 661.97" stroke="rgba(35, 35, 35, 1)" stroke-width="1.5"></path>
        <path d="M690.11 218.43L690.11 218.43" stroke="rgba(35, 35, 35, 1)" stroke-width="1.5"></path>
        <path d="M690.11 218.43L686.6 347.04" stroke="rgba(35, 35, 35, 1)" stroke-width="1.5"></path>
        <path d="M690.11 218.43L861.87 232.95" stroke="rgba(35, 35, 35, 1)" stroke-width="1.5"></path>
        <path d="M690.11 218.43L503.25 402.03" stroke="rgba(35, 35, 35, 1)" stroke-width="1.5"></path>
        <path d="M686.6 347.04L686.6 347.04" stroke="rgba(35, 35, 35, 1)" stroke-width="1.5"></path>
        <path d="M686.6 347.04L666.11 506.31" stroke="rgba(35, 35, 35, 1)" stroke-width="1.5"></path>
        <path d="M666.11 506.31L666.11 506.31" stroke="rgba(35, 35, 35, 1)" stroke-width="1.5"></path>
        <path d="M666.11 506.31L646.34 661.97" stroke="rgba(35, 35, 35, 1)" stroke-width="1.5"></path>
        <path d="M646.34 661.97L646.34 661.97" stroke="rgba(35, 35, 35, 1)" stroke-width="1.5"></path>
        <path d="M646.34 661.97L846.85 694.82" stroke="rgba(35, 35, 35, 1)" stroke-width="1.5"></path>
        <path d="M646.34 661.97L822.91 550.17" stroke="rgba(35, 35, 35, 1)" stroke-width="1.5"></path>
        <path d="M646.34 661.97L363.79 684.48" stroke="rgba(35, 35, 35, 1)" stroke-width="1.5"></path>
        <path d="M861.87 232.95L861.87 232.95" stroke="rgba(35, 35, 35, 1)" stroke-width="1.5"></path>
        <path d="M861.87 232.95L993.37 193.37" stroke="rgba(35, 35, 35, 1)" stroke-width="1.5"></path>
        <path d="M861.87 232.95L968.02 104.89" stroke="rgba(35, 35, 35, 1)" stroke-width="1.5"></path>
        <path d="M822.91 550.17L822.91 550.17" stroke="rgba(35, 35, 35, 1)" stroke-width="1.5"></path>
        <path d="M822.91 550.17L957.89 507.5" stroke="rgba(35, 35, 35, 1)" stroke-width="1.5"></path>
        <path d="M822.91 550.17L846.85 694.82" stroke="rgba(35, 35, 35, 1)" stroke-width="1.5"></path>
        <path d="M846.85 694.82L846.85 694.82" stroke="rgba(35, 35, 35, 1)" stroke-width="1.5"></path>
        <path d="M846.85 694.82L980.6 672.74" stroke="rgba(35, 35, 35, 1)" stroke-width="1.5"></path>
        <path d="M972.99 -79.19L972.99 -79.19" stroke="rgba(35, 35, 35, 1)" stroke-width="1.5"></path>
        <path d="M972.99 -79.19L1108.53 -45.83" stroke="rgba(35, 35, 35, 1)" stroke-width="1.5"></path>
        <path d="M972.99 -79.19L1102.78 49.03" stroke="rgba(35, 35, 35, 1)" stroke-width="1.5"></path>
        <path d="M972.99 -79.19L968.02 104.89" stroke="rgba(35, 35, 35, 1)" stroke-width="1.5"></path>
        <path d="M968.02 104.89L968.02 104.89" stroke="rgba(35, 35, 35, 1)" stroke-width="1.5"></path>
        <path d="M968.02 104.89L993.37 193.37" stroke="rgba(35, 35, 35, 1)" stroke-width="1.5"></path>
        <path d="M968.02 104.89L1102.78 49.03" stroke="rgba(35, 35, 35, 1)" stroke-width="1.5"></path>
        <path d="M993.37 193.37L993.37 193.37" stroke="rgba(35, 35, 35, 1)" stroke-width="1.5"></path>
        <path d="M993.37 193.37L1160.41 230.91" stroke="rgba(35, 35, 35, 1)" stroke-width="1.5"></path>
        <path d="M993.37 193.37L960.22 370.28" stroke="rgba(35, 35, 35, 1)" stroke-width="1.5"></path>
        <path d="M993.37 193.37L1102.78 49.03" stroke="rgba(35, 35, 35, 1)" stroke-width="1.5"></path>
        <path d="M960.22 370.28L960.22 370.28" stroke="rgba(35, 35, 35, 1)" stroke-width="1.5"></path>
        <path d="M960.22 370.28L957.89 507.5" stroke="rgba(35, 35, 35, 1)" stroke-width="1.5"></path>
        <path d="M960.22 370.28L861.87 232.95" stroke="rgba(35, 35, 35, 1)" stroke-width="1.5"></path>
        <path d="M960.22 370.28L1139.54 344.06" stroke="rgba(35, 35, 35, 1)" stroke-width="1.5"></path>
        <path d="M960.22 370.28L822.91 550.17" stroke="rgba(35, 35, 35, 1)" stroke-width="1.5"></path>
        <path d="M957.89 507.5L957.89 507.5" stroke="rgba(35, 35, 35, 1)" stroke-width="1.5"></path>
        <path d="M980.6 672.74L980.6 672.74" stroke="rgba(35, 35, 35, 1)" stroke-width="1.5"></path>
        <path d="M1108.53 -45.83L1108.53 -45.83" stroke="rgba(35, 35, 35, 1)" stroke-width="1.5"></path>
        <path d="M1108.53 -45.83L1102.78 49.03" stroke="rgba(35, 35, 35, 1)" stroke-width="1.5"></path>
        <path d="M1102.78 49.03L1102.78 49.03" stroke="rgba(35, 35, 35, 1)" stroke-width="1.5"></path>
        <path d="M1102.78 49.03L1251.55 72.58" stroke="rgba(35, 35, 35, 1)" stroke-width="1.5"></path>
        <path d="M1160.41 230.91L1160.41 230.91" stroke="rgba(35, 35, 35, 1)" stroke-width="1.5"></path>
        <path d="M1160.41 230.91L1264.59 190.46" stroke="rgba(35, 35, 35, 1)" stroke-width="1.5"></path>
        <path d="M1160.41 230.91L1139.54 344.06" stroke="rgba(35, 35, 35, 1)" stroke-width="1.5"></path>
        <path d="M1139.54 344.06L1139.54 344.06" stroke="rgba(35, 35, 35, 1)" stroke-width="1.5"></path>
        <path d="M1139.54 344.06L1277.75 368.95" stroke="rgba(35, 35, 35, 1)" stroke-width="1.5"></path>
        <path d="M1139.54 344.06L1264.59 190.46" stroke="rgba(35, 35, 35, 1)" stroke-width="1.5"></path>
        <path d="M1139.54 344.06L993.37 193.37" stroke="rgba(35, 35, 35, 1)" stroke-width="1.5"></path>
        <path d="M1139.54 344.06L957.89 507.5" stroke="rgba(35, 35, 35, 1)" stroke-width="1.5"></path>
        <path d="M1297.27 -76.61L1297.27 -76.61" stroke="rgba(35, 35, 35, 1)" stroke-width="1.5"></path>
        <path d="M1297.27 -76.61L1420.8 -82.57" stroke="rgba(35, 35, 35, 1)" stroke-width="1.5"></path>
        <path d="M1297.27 -76.61L1394.65 41.51" stroke="rgba(35, 35, 35, 1)" stroke-width="1.5"></path>
        <path d="M1297.27 -76.61L1251.55 72.58" stroke="rgba(35, 35, 35, 1)" stroke-width="1.5"></path>
        <path d="M1297.27 -76.61L1108.53 -45.83" stroke="rgba(35, 35, 35, 1)" stroke-width="1.5"></path>
        <path d="M1297.27 -76.61L1102.78 49.03" stroke="rgba(35, 35, 35, 1)" stroke-width="1.5"></path>
        <path d="M1297.27 -76.61L1264.59 190.46" stroke="rgba(35, 35, 35, 1)" stroke-width="1.5"></path>
        <path d="M1251.55 72.58L1251.55 72.58" stroke="rgba(35, 35, 35, 1)" stroke-width="1.5"></path>
        <path d="M1251.55 72.58L1264.59 190.46" stroke="rgba(35, 35, 35, 1)" stroke-width="1.5"></path>
        <path d="M1251.55 72.58L1394.65 41.51" stroke="rgba(35, 35, 35, 1)" stroke-width="1.5"></path>
        <path d="M1264.59 190.46L1264.59 190.46" stroke="rgba(35, 35, 35, 1)" stroke-width="1.5"></path>
        <path d="M1264.59 190.46L1387.93 217.16" stroke="rgba(35, 35, 35, 1)" stroke-width="1.5"></path>
        <path d="M1264.59 190.46L1277.75 368.95" stroke="rgba(35, 35, 35, 1)" stroke-width="1.5"></path>
        <path d="M1264.59 190.46L1394.65 41.51" stroke="rgba(35, 35, 35, 1)" stroke-width="1.5"></path>
        <path d="M1277.75 368.95L1277.75 368.95" stroke="rgba(35, 35, 35, 1)" stroke-width="1.5"></path>
        <path d="M1277.75 368.95L1410.53 385.14" stroke="rgba(35, 35, 35, 1)" stroke-width="1.5"></path>
        <path d="M1277.75 368.95L1298.73 529.5" stroke="rgba(35, 35, 35, 1)" stroke-width="1.5"></path>
        <path d="M1277.75 368.95L1160.41 230.91" stroke="rgba(35, 35, 35, 1)" stroke-width="1.5"></path>
        <path d="M1277.75 368.95L1410.17 493.73" stroke="rgba(35, 35, 35, 1)" stroke-width="1.5"></path>
        <path d="M1298.73 529.5L1298.73 529.5" stroke="rgba(35, 35, 35, 1)" stroke-width="1.5"></path>
        <path d="M1298.73 529.5L1410.17 493.73" stroke="rgba(35, 35, 35, 1)" stroke-width="1.5"></path>
        <path d="M1298.73 529.5L1416.48 653.95" stroke="rgba(35, 35, 35, 1)" stroke-width="1.5"></path>
        <path d="M1298.73 529.5L1241.49 695.45" stroke="rgba(35, 35, 35, 1)" stroke-width="1.5"></path>
        <path d="M1298.73 529.5L1410.53 385.14" stroke="rgba(35, 35, 35, 1)" stroke-width="1.5"></path>
        <path d="M1298.73 529.5L1139.54 344.06" stroke="rgba(35, 35, 35, 1)" stroke-width="1.5"></path>
        <path d="M1241.49 695.45L1241.49 695.45" stroke="rgba(35, 35, 35, 1)" stroke-width="1.5"></path>
        <path d="M1241.49 695.45L1416.48 653.95" stroke="rgba(35, 35, 35, 1)" stroke-width="1.5"></path>
        <path d="M1241.49 695.45L980.6 672.74" stroke="rgba(35, 35, 35, 1)" stroke-width="1.5"></path>
        <path d="M1241.49 695.45L1410.17 493.73" stroke="rgba(35, 35, 35, 1)" stroke-width="1.5"></path>
        <path d="M1241.49 695.45L1277.75 368.95" stroke="rgba(35, 35, 35, 1)" stroke-width="1.5"></path>
        <path d="M1420.8 -82.57L1420.8 -82.57" stroke="rgba(35, 35, 35, 1)" stroke-width="1.5"></path>
        <path d="M1420.8 -82.57L1394.65 41.51" stroke="rgba(35, 35, 35, 1)" stroke-width="1.5"></path>
        <path d="M1420.8 -82.57L1570.19 -74.69" stroke="rgba(35, 35, 35, 1)" stroke-width="1.5"></path>
        <path d="M1420.8 -82.57L1251.55 72.58" stroke="rgba(35, 35, 35, 1)" stroke-width="1.5"></path>
        <path d="M1420.8 -82.57L1601.28 110.63" stroke="rgba(35, 35, 35, 1)" stroke-width="1.5"></path>
        <path d="M1420.8 -82.57L1387.93 217.16" stroke="rgba(35, 35, 35, 1)" stroke-width="1.5"></path>
        <path d="M1394.65 41.51L1394.65 41.51" stroke="rgba(35, 35, 35, 1)" stroke-width="1.5"></path>
        <path d="M1387.93 217.16L1387.93 217.16" stroke="rgba(35, 35, 35, 1)" stroke-width="1.5"></path>
        <path d="M1387.93 217.16L1410.53 385.14" stroke="rgba(35, 35, 35, 1)" stroke-width="1.5"></path>
        <path d="M1387.93 217.16L1394.65 41.51" stroke="rgba(35, 35, 35, 1)" stroke-width="1.5"></path>
        <path d="M1410.53 385.14L1410.53 385.14" stroke="rgba(35, 35, 35, 1)" stroke-width="1.5"></path>
        <path d="M1410.53 385.14L1410.17 493.73" stroke="rgba(35, 35, 35, 1)" stroke-width="1.5"></path>
        <path d="M1410.53 385.14L1544.17 351.1" stroke="rgba(35, 35, 35, 1)" stroke-width="1.5"></path>
        <path d="M1410.17 493.73L1410.17 493.73" stroke="rgba(35, 35, 35, 1)" stroke-width="1.5"></path>
        <path d="M1416.48 653.95L1416.48 653.95" stroke="rgba(35, 35, 35, 1)" stroke-width="1.5"></path>
        <path d="M1416.48 653.95L1410.17 493.73" stroke="rgba(35, 35, 35, 1)" stroke-width="1.5"></path>
        <path d="M1416.48 653.95L1595.69 665.99" stroke="rgba(35, 35, 35, 1)" stroke-width="1.5"></path>
        <path d="M1416.48 653.95L1582.66 548.91" stroke="rgba(35, 35, 35, 1)" stroke-width="1.5"></path>
        <path d="M1416.48 653.95L1410.53 385.14" stroke="rgba(35, 35, 35, 1)" stroke-width="1.5"></path>
        <path d="M1570.19 -74.69L1570.19 -74.69" stroke="rgba(35, 35, 35, 1)" stroke-width="1.5"></path>
        <path d="M1570.19 -74.69L1601.28 110.63" stroke="rgba(35, 35, 35, 1)" stroke-width="1.5"></path>
        <path d="M1601.28 110.63L1601.28 110.63" stroke="rgba(35, 35, 35, 1)" stroke-width="1.5"></path>
        <path d="M1601.28 110.63L1576.12 228.09" stroke="rgba(35, 35, 35, 1)" stroke-width="1.5"></path>
        <path d="M1576.12 228.09L1576.12 228.09" stroke="rgba(35, 35, 35, 1)" stroke-width="1.5"></path>
        <path d="M1576.12 228.09L1544.17 351.1" stroke="rgba(35, 35, 35, 1)" stroke-width="1.5"></path>
        <path d="M1576.12 228.09L1387.93 217.16" stroke="rgba(35, 35, 35, 1)" stroke-width="1.5"></path>
        <path d="M1576.12 228.09L1410.53 385.14" stroke="rgba(35, 35, 35, 1)" stroke-width="1.5"></path>
        <path d="M1576.12 228.09L1394.65 41.51" stroke="rgba(35, 35, 35, 1)" stroke-width="1.5"></path>
        <path d="M1576.12 228.09L1570.19 -74.69" stroke="rgba(35, 35, 35, 1)" stroke-width="1.5"></path>
        <path d="M1544.17 351.1L1544.17 351.1" stroke="rgba(35, 35, 35, 1)" stroke-width="1.5"></path>
        <path d="M1544.17 351.1L1410.17 493.73" stroke="rgba(35, 35, 35, 1)" stroke-width="1.5"></path>
        <path d="M1544.17 351.1L1582.66 548.91" stroke="rgba(35, 35, 35, 1)" stroke-width="1.5"></path>
        <path d="M1544.17 351.1L1387.93 217.16" stroke="rgba(35, 35, 35, 1)" stroke-width="1.5"></path>
        <path d="M1544.17 351.1L1601.28 110.63" stroke="rgba(35, 35, 35, 1)" stroke-width="1.5"></path>
        <path d="M1582.66 548.91L1582.66 548.91" stroke="rgba(35, 35, 35, 1)" stroke-width="1.5"></path>
        <path d="M1582.66 548.91L1595.69 665.99" stroke="rgba(35, 35, 35, 1)" stroke-width="1.5"></path>
        <path d="M1582.66 548.91L1410.17 493.73" stroke="rgba(35, 35, 35, 1)" stroke-width="1.5"></path>
        <path d="M1582.66 548.91L1410.53 385.14" stroke="rgba(35, 35, 35, 1)" stroke-width="1.5"></path>
        <path d="M1582.66 548.91L1298.73 529.5" stroke="rgba(35, 35, 35, 1)" stroke-width="1.5"></path>
        <path d="M1595.69 665.99L1595.69 665.99" stroke="rgba(35, 35, 35, 1)" stroke-width="1.5"></path>
        <path d="M1595.69 665.99L1410.17 493.73" stroke="rgba(35, 35, 35, 1)" stroke-width="1.5"></path>
        <path d="M1595.69 665.99L1544.17 351.1" stroke="rgba(35, 35, 35, 1)" stroke-width="1.5"></path>
        <circle r="5" cx="-48.53" cy="346.48" fill="rgba(35, 35, 35, 1)"></circle>
        <circle r="5" cx="-75.96" cy="501.3" fill="rgba(35, 35, 35, 1)"></circle>
        <circle r="5" cx="-75.34" cy="701.21" fill="rgba(35, 35, 35, 1)"></circle>
        <circle r="5" cx="109.37" cy="492.14" fill="rgba(35, 35, 35, 1)"></circle>
        <circle r="5" cx="55.58" cy="647.66" fill="rgba(35, 35, 35, 1)"></circle>
        <circle r="5" cx="229.07" cy="367.7" fill="rgba(35, 35, 35, 1)"></circle>
        <circle r="5" cx="245.32" cy="527.03" fill="rgba(35, 35, 35, 1)"></circle>
        <circle r="5" cx="207.34" cy="661.01" fill="rgba(35, 35, 35, 1)"></circle>
        <circle r="5" cx="382.99" cy="373.26" fill="rgba(35, 35, 35, 1)"></circle>
        <circle r="5" cx="409.93" cy="490.28" fill="rgba(35, 35, 35, 1)"></circle>
        <circle r="5" cx="363.79" cy="684.48" fill="rgba(35, 35, 35, 1)"></circle>
        <circle r="5" cx="503.25" cy="402.03" fill="rgba(35, 35, 35, 1)"></circle>
        <circle r="5" cx="531.28" cy="544.08" fill="rgba(35, 35, 35, 1)"></circle>
        <circle r="5" cx="532.58" cy="656.07" fill="rgba(35, 35, 35, 1)"></circle>
        <circle r="5" cx="690.11" cy="218.43" fill="rgba(35, 35, 35, 1)"></circle>
        <circle r="5" cx="686.6" cy="347.04" fill="rgba(35, 35, 35, 1)"></circle>
        <circle r="5" cx="666.11" cy="506.31" fill="rgba(35, 35, 35, 1)"></circle>
        <circle r="5" cx="646.34" cy="661.97" fill="rgba(35, 35, 35, 1)"></circle>
        <circle r="5" cx="861.87" cy="232.95" fill="rgba(35, 35, 35, 1)"></circle>
        <circle r="5" cx="822.91" cy="550.17" fill="rgba(35, 35, 35, 1)"></circle>
        <circle r="5" cx="846.85" cy="694.82" fill="rgba(35, 35, 35, 1)"></circle>
        <circle r="5" cx="972.99" cy="-79.19" fill="rgba(35, 35, 35, 1)"></circle>
        <circle r="5" cx="968.02" cy="104.89" fill="rgba(35, 35, 35, 1)"></circle>
        <circle r="5" cx="993.37" cy="193.37" fill="rgba(35, 35, 35, 1)"></circle>
        <circle r="5" cx="960.22" cy="370.28" fill="rgba(35, 35, 35, 1)"></circle>
        <circle r="5" cx="957.89" cy="507.5" fill="rgba(35, 35, 35, 1)"></circle>
        <circle r="5" cx="980.6" cy="672.74" fill="rgba(35, 35, 35, 1)"></circle>
        <circle r="5" cx="1108.53" cy="-45.83" fill="rgba(35, 35, 35, 1)"></circle>
        <circle r="5" cx="1102.78" cy="49.03" fill="rgba(35, 35, 35, 1)"></circle>
        <circle r="5" cx="1160.41" cy="230.91" fill="rgba(35, 35, 35, 1)"></circle>
        <circle r="5" cx="1139.54" cy="344.06" fill="rgba(35, 35, 35, 1)"></circle>
        <circle r="5" cx="1297.27" cy="-76.61" fill="rgba(35, 35, 35, 1)"></circle>
        <circle r="5" cx="1251.55" cy="72.58" fill="rgba(35, 35, 35, 1)"></circle>
        <circle r="5" cx="1264.59" cy="190.46" fill="rgba(35, 35, 35, 1)"></circle>
        <circle r="5" cx="1277.75" cy="368.95" fill="rgba(35, 35, 35, 1)"></circle>
        <circle r="5" cx="1298.73" cy="529.5" fill="rgba(35, 35, 35, 1)"></circle>
        <circle r="5" cx="1241.49" cy="695.45" fill="rgba(35, 35, 35, 1)"></circle>
        <circle r="5" cx="1420.8" cy="-82.57" fill="rgba(35, 35, 35, 1)"></circle>
        <circle r="5" cx="1394.65" cy="41.51" fill="rgba(35, 35, 35, 1)"></circle>
        <circle r="5" cx="1387.93" cy="217.16" fill="rgba(35, 35, 35, 1)"></circle>
        <circle r="5" cx="1410.53" cy="385.14" fill="rgba(35, 35, 35, 1)"></circle>
        <circle r="5" cx="1410.17" cy="493.73" fill="rgba(35, 35, 35, 1)"></circle>
        <circle r="5" cx="1416.48" cy="653.95" fill="rgba(35, 35, 35, 1)"></circle>
        <circle r="5" cx="1570.19" cy="-74.69" fill="rgba(35, 35, 35, 1)"></circle>
        <circle r="5" cx="1601.28" cy="110.63" fill="rgba(35, 35, 35, 1)"></circle>
        <circle r="5" cx="1576.12" cy="228.09" fill="rgba(35, 35, 35, 1)"></circle>
        <circle r="5" cx="1544.17" cy="351.1" fill="rgba(35, 35, 35, 1)"></circle>
        <circle r="5" cx="1582.66" cy="548.91" fill="rgba(35, 35, 35, 1)"></circle>
        <circle r="5" cx="1595.69" cy="665.99" fill="rgba(35, 35, 35, 1)"></circle>
        <path d="M834.09 365.76L834.09 365.76" stroke="hsl(0, 0%, 0%)" stroke-width="1.5"></path>
        <path d="M834.09 365.76L818.03 503.52" stroke="hsl(0, 0%, 0%)" stroke-width="1.5"></path>
        <path d="M834.09 365.76L690.36 367.22" stroke="hsl(0, 0%, 0%)" stroke-width="1.5"></path>
        <path d="M834.09 365.76L991.02 338.79" stroke="hsl(0, 0%, 0%)" stroke-width="1.5"></path>
        <path d="M834.09 365.76L952.87 514.79" stroke="hsl(0, 0%, 0%)" stroke-width="1.5"></path>
        <path d="M834.09 365.76L670.58 518.36" stroke="hsl(0, 0%, 0%)" stroke-width="1.5"></path>
        <path d="M818.03 503.52L818.03 503.52" stroke="hsl(0, 0%, 0%)" stroke-width="1.5"></path>
        <path d="M818.03 503.52L952.87 514.79" stroke="hsl(0, 0%, 0%)" stroke-width="1.5"></path>
        <path d="M818.03 503.52L670.58 518.36" stroke="hsl(0, 0%, 0%)" stroke-width="1.5"></path>
        <path d="M818.03 503.52L690.36 367.22" stroke="hsl(0, 0%, 0%)" stroke-width="1.5"></path>
        <path d="M818.03 503.52L797.5 692.65" stroke="hsl(0, 0%, 0%)" stroke-width="1.5"></path>
        <path d="M980.23 705.85L980.23 705.85" stroke="hsl(0, 0%, 0%)" stroke-width="1.5"></path>
        <path d="M980.23 705.85L1115.47 639.26" stroke="hsl(0, 0%, 0%)" stroke-width="1.5"></path>
        <path d="M980.23 705.85L797.5 692.65" stroke="hsl(0, 0%, 0%)" stroke-width="1.5"></path>
        <path d="M980.23 705.85L952.87 514.79" stroke="hsl(0, 0%, 0%)" stroke-width="1.5"></path>
        <path d="M980.23 705.85L1112.35 553.6" stroke="hsl(0, 0%, 0%)" stroke-width="1.5"></path>
        <path d="M980.23 705.85L818.03 503.52" stroke="hsl(0, 0%, 0%)" stroke-width="1.5"></path>
        <path d="M980.23 705.85L1248.47 644.73" stroke="hsl(0, 0%, 0%)" stroke-width="1.5"></path>
        <path d="M1112.35 553.6L1112.35 553.6" stroke="hsl(0, 0%, 0%)" stroke-width="1.5"></path>
        <path d="M1112.35 553.6L1115.47 639.26" stroke="hsl(0, 0%, 0%)" stroke-width="1.5"></path>
        <path d="M1289.54 103.31L1289.54 103.31" stroke="hsl(0, 0%, 0%)" stroke-width="1.5"></path>
        <path d="M1289.54 103.31L1419.72 54.63" stroke="hsl(0, 0%, 0%)" stroke-width="1.5"></path>
        <path d="M1289.77 354.36L1289.77 354.36" stroke="hsl(0, 0%, 0%)" stroke-width="1.5"></path>
        <path d="M1289.77 354.36L1278.92 259.41" stroke="hsl(0, 0%, 0%)" stroke-width="1.5"></path>
        <path d="M1289.77 354.36L1391.55 364.91" stroke="hsl(0, 0%, 0%)" stroke-width="1.5"></path>
        <path d="M1289.77 354.36L1140.4 354.33" stroke="hsl(0, 0%, 0%)" stroke-width="1.5"></path>
        <path d="M1267.29 506.5L1267.29 506.5" stroke="hsl(0, 0%, 0%)" stroke-width="1.5"></path>
        <path d="M1267.29 506.5L1248.47 644.73" stroke="hsl(0, 0%, 0%)" stroke-width="1.5"></path>
        <path d="M1267.29 506.5L1289.77 354.36" stroke="hsl(0, 0%, 0%)" stroke-width="1.5"></path>
        <path d="M1267.29 506.5L1112.35 553.6" stroke="hsl(0, 0%, 0%)" stroke-width="1.5"></path>
        <path d="M1248.47 644.73L1248.47 644.73" stroke="hsl(0, 0%, 0%)" stroke-width="1.5"></path>
        <path d="M1248.47 644.73L1115.47 639.26" stroke="hsl(0, 0%, 0%)" stroke-width="1.5"></path>
        <path d="M1450.41 700.61L1450.41 700.61" stroke="hsl(0, 0%, 0%)" stroke-width="1.5"></path>
        <path d="M1450.41 700.61L1577.3 661.63" stroke="hsl(0, 0%, 0%)" stroke-width="1.5"></path>
        <path d="M1450.41 700.61L1434.48 561.74" stroke="hsl(0, 0%, 0%)" stroke-width="1.5"></path>
        <path d="M1450.41 700.61L1248.47 644.73" stroke="hsl(0, 0%, 0%)" stroke-width="1.5"></path>
        <path d="M1450.41 700.61L1572.47 507.91" stroke="hsl(0, 0%, 0%)" stroke-width="1.5"></path>
        <path d="M1450.41 700.61L1267.29 506.5" stroke="hsl(0, 0%, 0%)" stroke-width="1.5"></path>
        <path d="M1577.3 661.63L1577.3 661.63" stroke="hsl(0, 0%, 0%)" stroke-width="1.5"></path>
        <path d="M1577.3 661.63L1572.47 507.91" stroke="hsl(0, 0%, 0%)" stroke-width="1.5"></path>
        <path d="M1577.3 661.63L1434.48 561.74" stroke="hsl(0, 0%, 0%)" stroke-width="1.5"></path>
        <path d="M99.71 510.7L99.71 510.7" stroke="hsl(0, 0%, 0%)" stroke-width="1.5"></path>
        <path d="M99.71 510.7L248.73 517.8" stroke="hsl(0, 0%, 0%)" stroke-width="1.5"></path>
        <path d="M99.71 510.7L49.6 700.36" stroke="hsl(0, 0%, 0%)" stroke-width="1.5"></path>
        <path d="M99.71 510.7L239.54 655.96" stroke="hsl(0, 0%, 0%)" stroke-width="1.5"></path>
        <path d="M49.6 700.36L49.6 700.36" stroke="hsl(0, 0%, 0%)" stroke-width="1.5"></path>
        <path d="M49.6 700.36L239.54 655.96" stroke="hsl(0, 0%, 0%)" stroke-width="1.5"></path>
        <path d="M49.6 700.36L248.73 517.8" stroke="hsl(0, 0%, 0%)" stroke-width="1.5"></path>
        <path d="M49.6 700.36L364.85 689.9" stroke="hsl(0, 0%, 0%)" stroke-width="1.5"></path>
        <path d="M49.6 700.36L385.32 496.02" stroke="hsl(0, 0%, 0%)" stroke-width="1.5"></path>
        <path d="M49.6 700.36L519.99 687.8" stroke="hsl(0, 0%, 0%)" stroke-width="1.5"></path>
        <path d="M248.73 517.8L248.73 517.8" stroke="hsl(0, 0%, 0%)" stroke-width="1.5"></path>
        <path d="M248.73 517.8L385.32 496.02" stroke="hsl(0, 0%, 0%)" stroke-width="1.5"></path>
        <path d="M248.73 517.8L239.54 655.96" stroke="hsl(0, 0%, 0%)" stroke-width="1.5"></path>
        <path d="M239.54 655.96L239.54 655.96" stroke="hsl(0, 0%, 0%)" stroke-width="1.5"></path>
        <path d="M239.54 655.96L364.85 689.9" stroke="hsl(0, 0%, 0%)" stroke-width="1.5"></path>
        <path d="M385.32 496.02L385.32 496.02" stroke="hsl(0, 0%, 0%)" stroke-width="1.5"></path>
        <path d="M385.32 496.02L511.11 561.86" stroke="hsl(0, 0%, 0%)" stroke-width="1.5"></path>
        <path d="M385.32 496.02L364.85 689.9" stroke="hsl(0, 0%, 0%)" stroke-width="1.5"></path>
        <path d="M364.85 689.9L364.85 689.9" stroke="hsl(0, 0%, 0%)" stroke-width="1.5"></path>
        <path d="M364.85 689.9L519.99 687.8" stroke="hsl(0, 0%, 0%)" stroke-width="1.5"></path>
        <path d="M364.85 689.9L511.11 561.86" stroke="hsl(0, 0%, 0%)" stroke-width="1.5"></path>
        <path d="M364.85 689.9L248.73 517.8" stroke="hsl(0, 0%, 0%)" stroke-width="1.5"></path>
        <path d="M511.11 561.86L511.11 561.86" stroke="hsl(0, 0%, 0%)" stroke-width="1.5"></path>
        <path d="M511.11 561.86L519.99 687.8" stroke="hsl(0, 0%, 0%)" stroke-width="1.5"></path>
        <path d="M511.11 561.86L670.58 518.36" stroke="hsl(0, 0%, 0%)" stroke-width="1.5"></path>
        <path d="M511.11 561.86L680.18 672.87" stroke="hsl(0, 0%, 0%)" stroke-width="1.5"></path>
        <path d="M511.11 561.86L690.36 367.22" stroke="hsl(0, 0%, 0%)" stroke-width="1.5"></path>
        <path d="M519.99 687.8L519.99 687.8" stroke="hsl(0, 0%, 0%)" stroke-width="1.5"></path>
        <path d="M690.36 367.22L690.36 367.22" stroke="hsl(0, 0%, 0%)" stroke-width="1.5"></path>
        <path d="M690.36 367.22L670.58 518.36" stroke="hsl(0, 0%, 0%)" stroke-width="1.5"></path>
        <path d="M690.36 367.22L952.87 514.79" stroke="hsl(0, 0%, 0%)" stroke-width="1.5"></path>
        <path d="M670.58 518.36L670.58 518.36" stroke="hsl(0, 0%, 0%)" stroke-width="1.5"></path>
        <path d="M670.58 518.36L680.18 672.87" stroke="hsl(0, 0%, 0%)" stroke-width="1.5"></path>
        <path d="M670.58 518.36L797.5 692.65" stroke="hsl(0, 0%, 0%)" stroke-width="1.5"></path>
        <path d="M680.18 672.87L680.18 672.87" stroke="hsl(0, 0%, 0%)" stroke-width="1.5"></path>
        <path d="M680.18 672.87L797.5 692.65" stroke="hsl(0, 0%, 0%)" stroke-width="1.5"></path>
        <path d="M680.18 672.87L519.99 687.8" stroke="hsl(0, 0%, 0%)" stroke-width="1.5"></path>
        <path d="M797.5 692.65L797.5 692.65" stroke="hsl(0, 0%, 0%)" stroke-width="1.5"></path>
        <path d="M797.5 692.65L952.87 514.79" stroke="hsl(0, 0%, 0%)" stroke-width="1.5"></path>
        <path d="M991.02 338.79L991.02 338.79" stroke="hsl(0, 0%, 0%)" stroke-width="1.5"></path>
        <path d="M991.02 338.79L1140.4 354.33" stroke="hsl(0, 0%, 0%)" stroke-width="1.5"></path>
        <path d="M991.02 338.79L1109.74 231.46" stroke="hsl(0, 0%, 0%)" stroke-width="1.5"></path>
        <path d="M991.02 338.79L952.87 514.79" stroke="hsl(0, 0%, 0%)" stroke-width="1.5"></path>
        <path d="M952.87 514.79L952.87 514.79" stroke="hsl(0, 0%, 0%)" stroke-width="1.5"></path>
        <path d="M952.87 514.79L1112.35 553.6" stroke="hsl(0, 0%, 0%)" stroke-width="1.5"></path>
        <path d="M952.87 514.79L1115.47 639.26" stroke="hsl(0, 0%, 0%)" stroke-width="1.5"></path>
        <path d="M1109.74 231.46L1109.74 231.46" stroke="hsl(0, 0%, 0%)" stroke-width="1.5"></path>
        <path d="M1109.74 231.46L1140.4 354.33" stroke="hsl(0, 0%, 0%)" stroke-width="1.5"></path>
        <path d="M1140.4 354.33L1140.4 354.33" stroke="hsl(0, 0%, 0%)" stroke-width="1.5"></path>
        <path d="M1115.47 639.26L1115.47 639.26" stroke="hsl(0, 0%, 0%)" stroke-width="1.5"></path>
        <path d="M1260.2 -99.43L1260.2 -99.43" stroke="hsl(0, 0%, 0%)" stroke-width="1.5"></path>
        <path d="M1260.2 -99.43L1435.13 -74.14" stroke="hsl(0, 0%, 0%)" stroke-width="1.5"></path>
        <path d="M1260.2 -99.43L1289.54 103.31" stroke="hsl(0, 0%, 0%)" stroke-width="1.5"></path>
        <path d="M1278.92 259.41L1278.92 259.41" stroke="hsl(0, 0%, 0%)" stroke-width="1.5"></path>
        <path d="M1278.92 259.41L1391.55 364.91" stroke="hsl(0, 0%, 0%)" stroke-width="1.5"></path>
        <path d="M1278.92 259.41L1289.54 103.31" stroke="hsl(0, 0%, 0%)" stroke-width="1.5"></path>
        <path d="M1278.92 259.41L1425.16 193.24" stroke="hsl(0, 0%, 0%)" stroke-width="1.5"></path>
        <path d="M1435.13 -74.14L1435.13 -74.14" stroke="hsl(0, 0%, 0%)" stroke-width="1.5"></path>
        <path d="M1435.13 -74.14L1419.72 54.63" stroke="hsl(0, 0%, 0%)" stroke-width="1.5"></path>
        <path d="M1435.13 -74.14L1566.47 -94.44" stroke="hsl(0, 0%, 0%)" stroke-width="1.5"></path>
        <path d="M1435.13 -74.14L1568.68 74.48" stroke="hsl(0, 0%, 0%)" stroke-width="1.5"></path>
        <path d="M1435.13 -74.14L1289.54 103.31" stroke="hsl(0, 0%, 0%)" stroke-width="1.5"></path>
        <path d="M1419.72 54.63L1419.72 54.63" stroke="hsl(0, 0%, 0%)" stroke-width="1.5"></path>
        <path d="M1419.72 54.63L1425.16 193.24" stroke="hsl(0, 0%, 0%)" stroke-width="1.5"></path>
        <path d="M1419.72 54.63L1568.68 74.48" stroke="hsl(0, 0%, 0%)" stroke-width="1.5"></path>
        <path d="M1419.72 54.63L1566.47 -94.44" stroke="hsl(0, 0%, 0%)" stroke-width="1.5"></path>
        <path d="M1419.72 54.63L1260.2 -99.43" stroke="hsl(0, 0%, 0%)" stroke-width="1.5"></path>
        <path d="M1425.16 193.24L1425.16 193.24" stroke="hsl(0, 0%, 0%)" stroke-width="1.5"></path>
        <path d="M1425.16 193.24L1581.73 215.46" stroke="hsl(0, 0%, 0%)" stroke-width="1.5"></path>
        <path d="M1425.16 193.24L1289.54 103.31" stroke="hsl(0, 0%, 0%)" stroke-width="1.5"></path>
        <path d="M1391.55 364.91L1391.55 364.91" stroke="hsl(0, 0%, 0%)" stroke-width="1.5"></path>
        <path d="M1434.48 561.74L1434.48 561.74" stroke="hsl(0, 0%, 0%)" stroke-width="1.5"></path>
        <path d="M1434.48 561.74L1572.47 507.91" stroke="hsl(0, 0%, 0%)" stroke-width="1.5"></path>
        <path d="M1434.48 561.74L1267.29 506.5" stroke="hsl(0, 0%, 0%)" stroke-width="1.5"></path>
        <path d="M1434.48 561.74L1391.55 364.91" stroke="hsl(0, 0%, 0%)" stroke-width="1.5"></path>
        <path d="M1566.47 -94.44L1566.47 -94.44" stroke="hsl(0, 0%, 0%)" stroke-width="1.5"></path>
        <path d="M1566.47 -94.44L1568.68 74.48" stroke="hsl(0, 0%, 0%)" stroke-width="1.5"></path>
        <path d="M1566.47 -94.44L1260.2 -99.43" stroke="hsl(0, 0%, 0%)" stroke-width="1.5"></path>
        <path d="M1566.47 -94.44L1581.73 215.46" stroke="hsl(0, 0%, 0%)" stroke-width="1.5"></path>
        <path d="M1566.47 -94.44L1425.16 193.24" stroke="hsl(0, 0%, 0%)" stroke-width="1.5"></path>
        <path d="M1568.68 74.48L1568.68 74.48" stroke="hsl(0, 0%, 0%)" stroke-width="1.5"></path>
        <path d="M1568.68 74.48L1581.73 215.46" stroke="hsl(0, 0%, 0%)" stroke-width="1.5"></path>
        <path d="M1568.68 74.48L1425.16 193.24" stroke="hsl(0, 0%, 0%)" stroke-width="1.5"></path>
        <path d="M1568.68 74.48L1289.54 103.31" stroke="hsl(0, 0%, 0%)" stroke-width="1.5"></path>
        <path d="M1581.73 215.46L1581.73 215.46" stroke="hsl(0, 0%, 0%)" stroke-width="1.5"></path>
        <path d="M1581.73 215.46L1586.62 376.54" stroke="hsl(0, 0%, 0%)" stroke-width="1.5"></path>
        <path d="M1581.73 215.46L1419.72 54.63" stroke="hsl(0, 0%, 0%)" stroke-width="1.5"></path>
        <path d="M1581.73 215.46L1391.55 364.91" stroke="hsl(0, 0%, 0%)" stroke-width="1.5"></path>
        <path d="M1586.62 376.54L1586.62 376.54" stroke="hsl(0, 0%, 0%)" stroke-width="1.5"></path>
        <path d="M1586.62 376.54L1572.47 507.91" stroke="hsl(0, 0%, 0%)" stroke-width="1.5"></path>
        <path d="M1586.62 376.54L1391.55 364.91" stroke="hsl(0, 0%, 0%)" stroke-width="1.5"></path>
        <path d="M1586.62 376.54L1434.48 561.74" stroke="hsl(0, 0%, 0%)" stroke-width="1.5"></path>
        <path d="M1586.62 376.54L1425.16 193.24" stroke="hsl(0, 0%, 0%)" stroke-width="1.5"></path>
        <path d="M1586.62 376.54L1577.3 661.63" stroke="hsl(0, 0%, 0%)" stroke-width="1.5"></path>
        <path d="M1572.47 507.91L1572.47 507.91" stroke="hsl(0, 0%, 0%)" stroke-width="1.5"></path>
        <path d="M1572.47 507.91L1391.55 364.91" stroke="hsl(0, 0%, 0%)" stroke-width="1.5"></path>
        <circle r="25" cx="834.09" cy="365.76" fill="url(&quot;#SvgjsRadialGradient1015&quot;)"></circle>
        <circle r="25" cx="818.03" cy="503.52" fill="url(&quot;#SvgjsRadialGradient1015&quot;)"></circle>
        <circle r="25" cx="980.23" cy="705.85" fill="url(&quot;#SvgjsRadialGradient1015&quot;)"></circle>
        <circle r="25" cx="1112.35" cy="553.6" fill="url(&quot;#SvgjsRadialGradient1015&quot;)"></circle>
        <circle r="25" cx="1289.54" cy="103.31" fill="url(&quot;#SvgjsRadialGradient1015&quot;)"></circle>
        <circle r="25" cx="1289.77" cy="354.36" fill="url(&quot;#SvgjsRadialGradient1015&quot;)"></circle>
        <circle r="25" cx="1267.29" cy="506.5" fill="url(&quot;#SvgjsRadialGradient1015&quot;)"></circle>
        <circle r="25" cx="1248.47" cy="644.73" fill="url(&quot;#SvgjsRadialGradient1015&quot;)"></circle>
        <circle r="25" cx="1450.41" cy="700.61" fill="url(&quot;#SvgjsRadialGradient1015&quot;)"></circle>
        <circle r="25" cx="1577.3" cy="661.63" fill="url(&quot;#SvgjsRadialGradient1015&quot;)"></circle>
        <circle r="5" cx="99.71" cy="510.7" fill="#808080"></circle>
        <circle r="5" cx="49.6" cy="700.36" fill="#808080"></circle>
        <circle r="5" cx="248.73" cy="517.8" fill="#808080"></circle>
        <circle r="5" cx="239.54" cy="655.96" fill="#808080"></circle>
        <circle r="5" cx="385.32" cy="496.02" fill="#808080"></circle>
        <circle r="5" cx="364.85" cy="689.9" fill="#808080"></circle>
        <circle r="5" cx="511.11" cy="561.86" fill="#808080"></circle>
        <circle r="5" cx="519.99" cy="687.8" fill="#808080"></circle>
        <circle r="5" cx="690.36" cy="367.22" fill="#808080"></circle>
        <circle r="5" cx="670.58" cy="518.36" fill="#808080"></circle>
        <circle r="5" cx="680.18" cy="672.87" fill="#808080"></circle>
        <circle r="5" cx="797.5" cy="692.65" fill="#808080"></circle>
        <circle r="5" cx="991.02" cy="338.79" fill="#808080"></circle>
        <circle r="5" cx="952.87" cy="514.79" fill="#808080"></circle>
        <circle r="5" cx="1109.74" cy="231.46" fill="#808080"></circle>
        <circle r="5" cx="1140.4" cy="354.33" fill="#808080"></circle>
        <circle r="5" cx="1115.47" cy="639.26" fill="#808080"></circle>
        <circle r="5" cx="1260.2" cy="-99.43" fill="#808080"></circle>
        <circle r="5" cx="1278.92" cy="259.41" fill="#808080"></circle>
        <circle r="5" cx="1435.13" cy="-74.14" fill="#808080"></circle>
        <circle r="5" cx="1419.72" cy="54.63" fill="#808080"></circle>
        <circle r="5" cx="1425.16" cy="193.24" fill="#808080"></circle>
        <circle r="5" cx="1391.55" cy="364.91" fill="#808080"></circle>
        <circle r="5" cx="1434.48" cy="561.74" fill="#808080"></circle>
        <circle r="5" cx="1566.47" cy="-94.44" fill="#808080"></circle>
        <circle r="5" cx="1568.68" cy="74.48" fill="#808080"></circle>
        <circle r="5" cx="1581.73" cy="215.46" fill="#808080"></circle>
        <circle r="5" cx="1586.62" cy="376.54" fill="#808080"></circle>
        <circle r="5" cx="1572.47" cy="507.91" fill="#808080"></circle>
    </g>
    <defs>
        <mask id="SvgjsMask1014">
            <rect width="1440" height="560" fill="#ffffff"></rect>
        </mask>
        <radialGradient id="SvgjsRadialGradient1015">
            <stop stop-color="#ffffff" offset="0.1"></stop>
            <stop stop-color="rgba(0, 0, 0, 1)" offset="0.2"></stop>
            <stop stop-color="rgba(0, 0, 0, 0)" offset="1"></stop>
        </radialGradient>
    </defs>
</svg>