<svg width="1742" height="1470" viewBox="0 0 1742 1470" fill="none" xmlns="http://www.w3.org/2000/svg">
<path fill-rule="evenodd" clip-rule="evenodd" d="M771.618 167.728L871 0L970.382 167.728L1640.68 1299L1742 1470H1543.24H198.763H0L101.32 1299H300.084H810H1441.92L871 335.456L432.807 1075H234.044L771.618 167.728Z" fill="black"/>
<path d="M258.46 1114.54V1224.48C258.46 1241.5 253.63 1254.61 243.97 1263.81C234.463 1273.01 221.583 1277.61 205.33 1277.61C188.31 1277.61 174.663 1272.78 164.39 1263.12C154.117 1253.46 148.98 1239.74 148.98 1221.95H188.08C188.08 1228.7 189.46 1233.83 192.22 1237.36C194.98 1240.73 198.967 1242.42 204.18 1242.42C208.933 1242.42 212.613 1240.89 215.22 1237.82C217.827 1234.75 219.13 1230.31 219.13 1224.48V1114.54H258.46ZM401.434 1147.66V1276H362.104V1258.52C358.117 1264.19 352.674 1268.79 345.774 1272.32C339.027 1275.69 331.514 1277.38 323.234 1277.38C313.42 1277.38 304.757 1275.23 297.244 1270.94C289.73 1266.49 283.904 1260.13 279.764 1251.85C275.624 1243.57 273.554 1233.83 273.554 1222.64V1147.66H312.654V1217.35C312.654 1225.94 314.877 1232.61 319.324 1237.36C323.77 1242.11 329.75 1244.49 337.264 1244.49C344.93 1244.49 350.987 1242.11 355.434 1237.36C359.88 1232.61 362.104 1225.94 362.104 1217.35V1147.66H401.434ZM406.339 1211.6C406.339 1198.41 408.793 1186.84 413.699 1176.87C418.759 1166.9 425.583 1159.24 434.169 1153.87C442.756 1148.5 452.339 1145.82 462.919 1145.82C471.966 1145.82 479.863 1147.66 486.609 1151.34C493.509 1155.02 498.799 1159.85 502.479 1165.83V1147.66H541.809V1276H502.479V1257.83C498.646 1263.81 493.279 1268.64 486.379 1272.32C479.633 1276 471.736 1277.84 462.689 1277.84C452.263 1277.84 442.756 1275.16 434.169 1269.79C425.583 1264.27 418.759 1256.53 413.699 1246.56C408.793 1236.44 406.339 1224.79 406.339 1211.6ZM502.479 1211.83C502.479 1202.02 499.719 1194.27 494.199 1188.6C488.833 1182.93 482.239 1180.09 474.419 1180.09C466.599 1180.09 459.929 1182.93 454.409 1188.6C449.043 1194.12 446.359 1201.79 446.359 1211.6C446.359 1221.41 449.043 1229.23 454.409 1235.06C459.929 1240.73 466.599 1243.57 474.419 1243.57C482.239 1243.57 488.833 1240.73 494.199 1235.06C499.719 1229.39 502.479 1221.64 502.479 1211.83ZM632.938 1146.28C647.964 1146.28 659.924 1151.19 668.818 1161C677.864 1170.66 682.388 1184 682.388 1201.02V1276H643.288V1206.31C643.288 1197.72 641.064 1191.05 636.618 1186.3C632.171 1181.55 626.191 1179.17 618.678 1179.17C611.164 1179.17 605.184 1181.55 600.738 1186.3C596.291 1191.05 594.068 1197.72 594.068 1206.31V1276H554.738V1147.66H594.068V1164.68C598.054 1159.01 603.421 1154.56 610.168 1151.34C616.914 1147.97 624.504 1146.28 632.938 1146.28ZM733.523 1114.54V1276H694.193V1114.54H733.523ZM798.71 1277.84C787.517 1277.84 777.55 1275.92 768.81 1272.09C760.07 1268.26 753.17 1263.04 748.11 1256.45C743.05 1249.7 740.214 1242.19 739.6 1233.91H778.47C778.93 1238.36 781 1241.96 784.68 1244.72C788.36 1247.48 792.884 1248.86 798.25 1248.86C803.157 1248.86 806.914 1247.94 809.52 1246.1C812.28 1244.11 813.66 1241.58 813.66 1238.51C813.66 1234.83 811.744 1232.15 807.91 1230.46C804.077 1228.62 797.867 1226.63 789.28 1224.48C780.08 1222.33 772.414 1220.11 766.28 1217.81C760.147 1215.36 754.857 1211.6 750.41 1206.54C745.964 1201.33 743.74 1194.35 743.74 1185.61C743.74 1178.25 745.734 1171.58 749.72 1165.6C753.86 1159.47 759.84 1154.64 767.66 1151.11C775.634 1147.58 785.064 1145.82 795.95 1145.82C812.05 1145.82 824.7 1149.81 833.9 1157.78C843.254 1165.75 848.62 1176.33 850 1189.52H813.66C813.047 1185.07 811.054 1181.55 807.68 1178.94C804.46 1176.33 800.167 1175.03 794.8 1175.03C790.2 1175.03 786.674 1175.95 784.22 1177.79C781.767 1179.48 780.54 1181.85 780.54 1184.92C780.54 1188.6 782.457 1191.36 786.29 1193.2C790.277 1195.04 796.41 1196.88 804.69 1198.72C814.197 1201.17 821.94 1203.63 827.92 1206.08C833.9 1208.38 839.114 1212.21 843.56 1217.58C848.16 1222.79 850.537 1229.85 850.69 1238.74C850.69 1246.25 848.544 1253 844.25 1258.98C840.11 1264.81 834.054 1269.41 826.08 1272.78C818.26 1276.15 809.137 1277.84 798.71 1277.84ZM930.757 1242.65V1276H910.747C896.487 1276 885.37 1272.55 877.397 1265.65C869.424 1258.6 865.437 1247.17 865.437 1231.38V1180.32H849.797V1147.66H865.437V1116.38H904.767V1147.66H930.527V1180.32H904.767V1231.84C904.767 1235.67 905.687 1238.43 907.527 1240.12C909.367 1241.81 912.434 1242.65 916.727 1242.65H930.757ZM1063.87 1147.66V1276H1024.54V1258.52C1020.55 1264.19 1015.11 1268.79 1008.21 1272.32C1001.46 1275.69 993.95 1277.38 985.67 1277.38C975.856 1277.38 967.193 1275.23 959.68 1270.94C952.166 1266.49 946.34 1260.13 942.2 1251.85C938.06 1243.57 935.99 1233.83 935.99 1222.64V1147.66H975.09V1217.35C975.09 1225.94 977.313 1232.61 981.76 1237.36C986.206 1242.11 992.186 1244.49 999.7 1244.49C1007.37 1244.49 1013.42 1242.11 1017.87 1237.36C1022.32 1232.61 1024.54 1225.94 1024.54 1217.35V1147.66H1063.87ZM1115.93 1169.05C1120.53 1162 1126.28 1156.48 1133.18 1152.49C1140.08 1148.35 1147.74 1146.28 1156.18 1146.28V1187.91H1145.37C1135.55 1187.91 1128.19 1190.06 1123.29 1194.35C1118.38 1198.49 1115.93 1205.85 1115.93 1216.43V1276H1076.6V1147.66H1115.93V1169.05ZM1179.23 1134.32C1172.33 1134.32 1166.66 1132.33 1162.21 1128.34C1157.92 1124.2 1155.77 1119.14 1155.77 1113.16C1155.77 1107.03 1157.92 1101.97 1162.21 1097.98C1166.66 1093.84 1172.33 1091.77 1179.23 1091.77C1185.98 1091.77 1191.5 1093.84 1195.79 1097.98C1200.24 1101.97 1202.46 1107.03 1202.46 1113.16C1202.46 1119.14 1200.24 1124.2 1195.79 1128.34C1191.5 1132.33 1185.98 1134.32 1179.23 1134.32ZM1198.78 1147.66V1276H1159.45V1147.66H1198.78ZM1248.56 1243.57H1304.22V1276H1204.63V1244.72L1257.99 1180.09H1205.09V1147.66H1303.07V1178.94L1248.56 1243.57Z" fill="black"/>
  <style>
    <!-- path { fill: #000; }
    @media (prefers-color-scheme: dark) {
        path { fill: #FFF; }
    } -->
  </style>
</svg>
