<svg width="400" height="400" viewBox="0 0 400 400" fill="none" xmlns="http://www.w3.org/2000/svg">
<g clip-path="url(#clip0_103_2)">
<rect width="400" height="400" fill="white"/>
<path d="M536.519 765.031L305.987 959.6M-119.143 394.933L147.84 344.407L371.998 231.008L633.152 152.119L788.069 -114.509M788.069 -114.509L458.021 -32.6342L491.517 -258.919L788.069 -114.509ZM788.069 -114.509L1055.89 -226.917L919.209 102.572L1146.39 111.204L1149.23 354.572L1415.42 304.072" stroke="#9CA3AF" stroke-width="2.06888"/>
<path d="M371.998 231.009L178.153 138.842L147.84 344.407L178.201 539.318L446.021 426.91L371.998 231.009ZM371.998 231.009L458.021 -32.6338L633.151 152.12L699.656 337.95L678.97 546.381L536.518 765.031L836.657 752.308L942.635 534.026L1115.73 580.858L1149.23 354.573L915.772 305.697L919.209 102.573L788.069 -114.508L757.708 -309.42L490.725 -258.894" stroke="#9CA3AF" stroke-width="2.06888"/>
<path d="M1029.71 844.5L835.072 752.358L805.552 957.898M446.021 426.909L678.97 546.381M678.97 546.381L915.772 305.696L942.636 534.026M678.97 546.381L309.341 756.399M699.656 337.95L919.209 102.572" stroke="#9CA3AF" stroke-width="2.06888"/>
<path d="M1445.73 98.5065L1149.23 354.572L942.635 534.026L678.97 546.381L836.657 752.308M836.657 752.308L538.568 1008.42L536.518 765.031L309.341 756.399L446.021 426.909L147.84 344.407M836.657 752.308L1115.73 580.858M178.153 138.842L458.021 -32.6341M1445.78 498.983L1148.44 354.598M919.209 102.572L1288.84 -107.446" stroke="#9CA3AF" stroke-width="2.06888"/>
<path d="M139.619 336.738C135.409 341.252 135.677 348.344 140.217 352.58C144.758 356.815 151.852 356.589 156.062 352.075C160.272 347.562 160.004 340.469 155.464 336.234C150.923 331.999 143.829 332.225 139.619 336.738Z" fill="#9CA3AF"/>
<path d="M363.776 223.34C359.566 227.854 359.834 234.946 364.374 239.182C368.915 243.417 376.009 243.191 380.219 238.677C384.429 234.164 384.161 227.071 379.621 222.836C375.08 218.601 367.987 218.827 363.776 223.34Z" fill="#9CA3AF"/>
</g>
<defs>
<clipPath id="clip0_103_2">
<rect width="400" height="400" fill="white"/>
</clipPath>
</defs>
</svg>
